# MagicaVoxel @ Ephtracy

# group
o 

# material
mtllib LargeShadow.mtl
usemtl palette

# normals
vn -1 0 0
vn 1 0 0
vn 0 0 1
vn 0 0 -1
vn 0 -1 0
vn 0 1 0

# texcoords
vt 0.837891 0.5
vt 0.955078 0.5
vt 0.986328 0.5

# verts
v 1.1 2 -0.5
v 1.1 2 -1.5
v 1.1 2.1 -0.5
v 1.1 2.1 -0.7
v 1.1 2.1 -1.3
v 1.1 2.1 -1.5
v 1.1 2.5 0
v 1.1 2.5 -0.3
v 1.1 2.5 -1.7
v 1.1 2.5 -1.8
v 1.1 2.5 -2
v 1.1 2.8 -0.7
v 1.1 2.8 -1.3
v 1.1 2.8 -1.7
v 1.1 2.8 -1.8
v 1.1 3 -0.3
v 1.1 3 -0.5
v 1.1 3 -0.6
v 1.1 3 -0.7
v 1.1 3 -1.4
v 1.1 3 -1.5
v 1.1 3 -1.6
v 1.1 3 -1.7
v 1.1 3 -1.9
v 1.1 3.1 -0.8
v 1.1 3.1 -1.1
v 1.1 3.1 -1.3
v 1.1 3.1 -1.4
v 1.1 3.2 -0.7
v 1.1 3.2 -0.8
v 1.1 3.2 -1
v 1.1 3.2 -1.2
v 1.1 3.2 -1.3
v 1.1 3.3 -0.8
v 1.1 3.3 -0.9
v 1.1 3.4 -0.2
v 1.1 3.4 -0.5
v 1.1 3.4 -0.8
v 1.1 3.4 -0.9
v 1.1 3.5 0
v 1.1 3.5 -0.2
v 1.1 3.5 -0.5
v 1.1 3.5 -0.6
v 1.1 3.5 -0.7
v 1.1 3.5 -0.8
v 1.1 3.5 -1
v 1.1 3.5 -1.1
v 1.1 3.5 -1.2
v 1.1 3.5 -1.3
v 1.1 3.5 -1.4
v 1.1 3.5 -1.5
v 1.1 3.5 -1.6
v 1.1 3.5 -1.9
v 1.1 3.5 -2
v 1.1 3.6 -0.5
v 1.1 3.6 -0.6
v 1.1 3.6 -1.1
v 1.1 3.6 -1.5
v 1.1 3.7 -0.6
v 1.1 3.7 -1.1
v 1.1 3.9 -1.1
v 1.1 3.9 -1.5
v 1.1 4 -0.5
v 1.1 4 -1.5
v 1.2 2.1 -0.5
v 1.2 2.1 -0.6
v 1.2 2.1 -0.7
v 1.2 2.1 -1.3
v 1.2 2.1 -1.4
v 1.2 2.1 -1.5
v 1.2 2.5 -0.3
v 1.2 2.5 -0.5
v 1.2 2.5 -1.5
v 1.2 2.5 -1.7
v 1.2 2.8 -0.7
v 1.2 2.8 -1.3
v 1.2 2.8 -1.4
v 1.2 2.8 -1.7
v 1.2 2.9 -0.6
v 1.2 2.9 -0.7
v 1.2 3 -0.3
v 1.2 3 -0.5
v 1.2 3 -0.6
v 1.2 3 -0.7
v 1.2 3 -1.4
v 1.2 3 -1.5
v 1.2 3 -1.6
v 1.2 3 -1.7
v 1.2 3.1 -0.8
v 1.2 3.1 -1.1
v 1.2 3.1 -1.3
v 1.2 3.1 -1.4
v 1.2 3.2 -0.7
v 1.2 3.2 -0.8
v 1.2 3.2 -1
v 1.2 3.2 -1.2
v 1.2 3.2 -1.3
v 1.2 3.3 -0.8
v 1.2 3.3 -0.9
v 1.2 3.4 -0.8
v 1.2 3.4 -0.9
v 1.2 3.5 -0.7
v 1.2 3.5 -0.8
v 1.2 3.5 -1
v 1.2 3.5 -1.1
v 1.2 3.5 -1.2
v 1.2 3.5 -1.3
v 1.3 2 -0.4
v 1.3 2 -0.5
v 1.3 2 -1.5
v 1.3 2 -1.6
v 1.3 2.1 -0.5
v 1.3 2.4 0
v 1.3 2.4 -0.4
v 1.3 2.4 -0.5
v 1.3 2.4 -1.6
v 1.3 2.4 -2
v 1.3 2.5 0
v 1.3 2.5 -0.5
v 1.3 2.5 -1.5
v 1.3 2.5 -2
v 1.3 3.5 0
v 1.3 3.5 -0.2
v 1.3 3.5 -0.5
v 1.3 3.5 -1.5
v 1.3 3.5 -2
v 1.3 3.6 0
v 1.3 3.6 -0.2
v 1.3 3.6 -1.5
v 1.3 3.6 -2
v 1.3 3.7 0
v 1.3 3.7 -0.3
v 1.3 3.7 -1.7
v 1.3 3.7 -2
v 1.3 3.9 -1.5
v 1.3 3.9 -1.7
v 1.3 4 -0.3
v 1.3 4 -0.5
v 1.3 4 -1.5
v 1.3 4 -1.7
v 1.4 2 0
v 1.4 2 -0.4
v 1.4 2 -1.6
v 1.4 2 -2
v 1.4 2.1 0
v 1.4 2.1 -0.1
v 1.4 2.1 -1.9
v 1.4 2.1 -2
v 1.4 2.4 -0.1
v 1.4 2.4 -0.4
v 1.4 2.4 -1.6
v 1.4 2.4 -1.9
v 1.4 3.7 -0.2
v 1.4 3.7 -0.3
v 1.4 3.7 -1.7
v 1.4 3.7 -1.8
v 1.4 3.9 -1.7
v 1.4 4 -0.2
v 1.4 4 -0.3
v 1.4 4 -1.7
v 1.4 4 -1.8
v 1.5 3.3 -1.3
v 1.5 3.3 -1.4
v 1.5 3.5 -1.3
v 1.5 3.5 -1.4
v 1.6 2.1 0
v 1.6 2.1 -0.1
v 1.6 2.1 -1.9
v 1.6 2.1 -2
v 1.6 3.5 0
v 1.6 3.5 -0.1
v 1.6 3.5 -1.9
v 1.6 3.5 -2
v 1.8 2.1 0
v 1.8 2.1 -0.1
v 1.8 2.1 -1.9
v 1.8 2.1 -2
v 1.8 3.6 0
v 1.8 3.6 -0.1
v 1.8 3.6 -1.9
v 1.8 3.6 -2
v 1.4 2.4 0
v 1.4 2.4 -0.1
v 1.4 2.4 -1.9
v 1.4 2.4 -2
v 1.4 3.3 -1.3
v 1.4 3.3 -1.4
v 1.4 3.5 0
v 1.4 3.5 -0.1
v 1.4 3.5 -1.3
v 1.4 3.5 -1.4
v 1.4 3.5 -1.9
v 1.4 3.5 -2
v 1.4 3.6 0
v 1.4 3.6 -0.2
v 1.4 3.6 -1.8
v 1.4 3.6 -2
v 1.4 3.7 0
v 1.4 3.7 -0.2
v 1.4 3.7 -1.8
v 1.4 3.7 -2
v 1.7 2.1 0
v 1.7 2.1 -0.1
v 1.7 2.1 -1.9
v 1.7 2.1 -2
v 1.7 3.6 0
v 1.7 3.6 -0.1
v 1.7 3.6 -1.9
v 1.7 3.6 -2
v 2 2 0
v 2 2 -2
v 2 3.6 0
v 2 3.6 -0.2
v 2 3.6 -1.8
v 2 3.6 -2
v 2 4 -0.2
v 2 4 -1.8
v 1.1 2.5 0
v 1.1 3.5 0
v 1.3 2.4 0
v 1.3 2.5 0
v 1.3 3.5 0
v 1.3 3.6 0
v 1.3 3.7 0
v 1.4 2 0
v 1.4 2.1 0
v 1.4 2.4 0
v 1.4 3.5 0
v 1.4 3.6 0
v 1.4 3.7 0
v 1.6 2.1 0
v 1.6 3.5 0
v 1.7 2.1 0
v 1.7 3.6 0
v 1.8 2.1 0
v 1.8 3.6 0
v 2 2 0
v 2 3.6 0
v 1.4 2.1 -0.1
v 1.4 2.4 -0.1
v 1.4 3.5 -0.1
v 1.6 2.1 -0.1
v 1.6 3.5 -0.1
v 1.7 2.1 -0.1
v 1.7 3.6 -0.1
v 1.8 2.1 -0.1
v 1.8 3.6 -0.1
v 1.4 3.6 -0.2
v 1.4 3.7 -0.2
v 1.4 4 -0.2
v 2 3.6 -0.2
v 2 4 -0.2
v 1.3 3.7 -0.3
v 1.3 4 -0.3
v 1.4 3.7 -0.3
v 1.4 4 -0.3
v 1.3 2 -0.4
v 1.3 2.4 -0.4
v 1.4 2 -0.4
v 1.4 2.4 -0.4
v 1.1 2 -0.5
v 1.1 2.1 -0.5
v 1.1 3.5 -0.5
v 1.1 3.6 -0.5
v 1.1 4 -0.5
v 1.2 2 -0.5
v 1.2 2.1 -0.5
v 1.2 2.5 -0.5
v 1.2 3.5 -0.5
v 1.2 3.6 -0.5
v 1.3 2 -0.5
v 1.3 2.1 -0.5
v 1.3 2.4 -0.5
v 1.3 2.5 -0.5
v 1.3 3.5 -0.5
v 1.3 4 -0.5
v 1.1 2.1 -0.7
v 1.1 2.8 -0.7
v 1.1 3 -0.7
v 1.2 2.1 -0.7
v 1.2 2.8 -0.7
v 1.2 2.9 -0.7
v 1.2 3 -0.7
v 1.1 3.2 -0.8
v 1.1 3.3 -0.8
v 1.1 3.4 -0.8
v 1.1 3.5 -0.8
v 1.2 3.2 -0.8
v 1.2 3.3 -0.8
v 1.2 3.4 -0.8
v 1.2 3.5 -0.8
v 1.1 3.3 -0.9
v 1.1 3.4 -0.9
v 1.2 3.3 -0.9
v 1.2 3.4 -0.9
v 1.1 3.1 -1.1
v 1.1 3.5 -1.1
v 1.2 3.1 -1.1
v 1.2 3.5 -1.1
v 1.1 3.2 -1.3
v 1.1 3.5 -1.3
v 1.2 3.2 -1.3
v 1.2 3.5 -1.3
v 1.1 3 -1.4
v 1.1 3.1 -1.4
v 1.2 3 -1.4
v 1.2 3.1 -1.4
v 1.4 3.3 -1.4
v 1.4 3.5 -1.4
v 1.5 3.3 -1.4
v 1.5 3.5 -1.4
v 1.1 2.5 -1.7
v 1.1 2.8 -1.7
v 1.1 3 -1.7
v 1.2 2.5 -1.7
v 1.2 2.8 -1.7
v 1.2 3 -1.7
v 1.1 2.5 -0.3
v 1.1 3 -0.3
v 1.2 2.5 -0.3
v 1.2 3 -0.3
v 1.1 3.2 -0.7
v 1.1 3.5 -0.7
v 1.2 3.2 -0.7
v 1.2 3.5 -0.7
v 1.1 3.1 -0.8
v 1.1 3.2 -0.8
v 1.2 3.1 -0.8
v 1.2 3.2 -0.8
v 1.1 3.2 -1
v 1.1 3.5 -1
v 1.2 3.2 -1
v 1.2 3.5 -1
v 1.1 3.2 -1.2
v 1.1 3.5 -1.2
v 1.2 3.2 -1.2
v 1.2 3.5 -1.2
v 1.1 2.1 -1.3
v 1.1 2.8 -1.3
v 1.1 3.1 -1.3
v 1.2 2.1 -1.3
v 1.2 2.8 -1.3
v 1.2 3.1 -1.3
v 1.4 3.3 -1.3
v 1.4 3.5 -1.3
v 1.5 3.3 -1.3
v 1.5 3.5 -1.3
v 1.1 2 -1.5
v 1.1 2.1 -1.5
v 1.1 3.5 -1.5
v 1.1 3.6 -1.5
v 1.1 3.9 -1.5
v 1.1 4 -1.5
v 1.2 2.1 -1.5
v 1.2 2.5 -1.5
v 1.3 2 -1.5
v 1.3 2.5 -1.5
v 1.3 3.5 -1.5
v 1.3 3.6 -1.5
v 1.3 3.9 -1.5
v 1.3 4 -1.5
v 1.3 2 -1.6
v 1.3 2.4 -1.6
v 1.4 2 -1.6
v 1.4 2.4 -1.6
v 1.3 3.7 -1.7
v 1.3 3.9 -1.7
v 1.3 4 -1.7
v 1.4 3.7 -1.7
v 1.4 3.9 -1.7
v 1.4 4 -1.7
v 1.4 3.6 -1.8
v 1.4 3.7 -1.8
v 1.4 4 -1.8
v 2 3.6 -1.8
v 2 4 -1.8
v 1.4 2.1 -1.9
v 1.4 2.4 -1.9
v 1.4 3.5 -1.9
v 1.6 2.1 -1.9
v 1.6 3.5 -1.9
v 1.7 2.1 -1.9
v 1.7 3.6 -1.9
v 1.8 2.1 -1.9
v 1.8 3.6 -1.9
v 1.1 2.5 -2
v 1.1 3.5 -2
v 1.3 2.4 -2
v 1.3 2.5 -2
v 1.3 3.5 -2
v 1.3 3.6 -2
v 1.3 3.7 -2
v 1.4 2 -2
v 1.4 2.1 -2
v 1.4 2.4 -2
v 1.4 3.5 -2
v 1.4 3.6 -2
v 1.4 3.7 -2
v 1.6 2.1 -2
v 1.6 3.5 -2
v 1.7 2.1 -2
v 1.7 3.6 -2
v 1.8 2.1 -2
v 1.8 3.6 -2
v 2 2 -2
v 2 3.6 -2
v 1.4 2 0
v 2 2 0
v 1.3 2 -0.4
v 1.4 2 -0.4
v 1.1 2 -0.5
v 1.2 2 -0.5
v 1.3 2 -0.5
v 1.2 2 -1.4
v 1.3 2 -1.4
v 1.1 2 -1.5
v 1.3 2 -1.5
v 1.3 2 -1.6
v 1.4 2 -1.6
v 1.4 2 -2
v 2 2 -2
v 1.3 2.4 0
v 1.4 2.4 0
v 1.4 2.4 -0.1
v 1.3 2.4 -0.4
v 1.4 2.4 -0.4
v 1.3 2.4 -1.6
v 1.4 2.4 -1.6
v 1.4 2.4 -1.9
v 1.3 2.4 -2
v 1.4 2.4 -2
v 1.1 2.5 0
v 1.3 2.5 0
v 1.1 2.5 -0.3
v 1.2 2.5 -0.3
v 1.2 2.5 -0.5
v 1.3 2.5 -0.5
v 1.2 2.5 -1.5
v 1.3 2.5 -1.5
v 1.1 2.5 -1.7
v 1.2 2.5 -1.7
v 1.1 2.5 -1.8
v 1.2 2.5 -1.8
v 1.1 2.5 -2
v 1.3 2.5 -2
v 1.1 3 -0.3
v 1.2 3 -0.3
v 1.1 3 -0.5
v 1.2 3 -0.5
v 1.1 3 -0.6
v 1.2 3 -0.6
v 1.1 3 -0.7
v 1.2 3 -0.7
v 1.1 3 -1.4
v 1.2 3 -1.4
v 1.1 3 -1.5
v 1.2 3 -1.5
v 1.1 3 -1.6
v 1.2 3 -1.6
v 1.1 3 -1.7
v 1.2 3 -1.7
v 1.1 3.1 -1.3
v 1.2 3.1 -1.3
v 1.1 3.1 -1.4
v 1.2 3.1 -1.4
v 1.1 3.2 -0.8
v 1.2 3.2 -0.8
v 1.1 3.2 -1
v 1.2 3.2 -1
v 1.1 3.4 -0.8
v 1.2 3.4 -0.8
v 1.1 3.4 -0.9
v 1.2 3.4 -0.9
v 1.4 3.5 0
v 1.6 3.5 0
v 1.4 3.5 -0.1
v 1.6 3.5 -0.1
v 1.1 3.5 -0.7
v 1.2 3.5 -0.7
v 1.1 3.5 -0.8
v 1.2 3.5 -0.8
v 1.1 3.5 -1
v 1.2 3.5 -1
v 1.1 3.5 -1.1
v 1.2 3.5 -1.1
v 1.1 3.5 -1.2
v 1.2 3.5 -1.2
v 1.1 3.5 -1.3
v 1.2 3.5 -1.3
v 1.4 3.5 -1.3
v 1.5 3.5 -1.3
v 1.4 3.5 -1.4
v 1.5 3.5 -1.4
v 1.4 3.5 -1.9
v 1.6 3.5 -1.9
v 1.4 3.5 -2
v 1.6 3.5 -2
v 1.4 2.1 0
v 1.6 2.1 0
v 1.7 2.1 0
v 1.8 2.1 0
v 1.4 2.1 -0.1
v 1.6 2.1 -0.1
v 1.7 2.1 -0.1
v 1.8 2.1 -0.1
v 1.1 2.1 -0.5
v 1.2 2.1 -0.5
v 1.2 2.1 -0.6
v 1.1 2.1 -0.7
v 1.2 2.1 -0.7
v 1.1 2.1 -1.3
v 1.2 2.1 -1.3
v 1.2 2.1 -1.4
v 1.1 2.1 -1.5
v 1.2 2.1 -1.5
v 1.4 2.1 -1.9
v 1.6 2.1 -1.9
v 1.7 2.1 -1.9
v 1.8 2.1 -1.9
v 1.4 2.1 -2
v 1.6 2.1 -2
v 1.7 2.1 -2
v 1.8 2.1 -2
v 1.1 3.1 -0.8
v 1.2 3.1 -0.8
v 1.1 3.1 -1.1
v 1.2 3.1 -1.1
v 1.1 3.2 -0.7
v 1.2 3.2 -0.7
v 1.1 3.2 -0.8
v 1.2 3.2 -0.8
v 1.1 3.2 -1.2
v 1.2 3.2 -1.2
v 1.1 3.2 -1.3
v 1.2 3.2 -1.3
v 1.1 3.3 -0.8
v 1.2 3.3 -0.8
v 1.1 3.3 -0.9
v 1.2 3.3 -0.9
v 1.4 3.3 -1.3
v 1.5 3.3 -1.3
v 1.4 3.3 -1.4
v 1.5 3.3 -1.4
v 1.1 3.5 0
v 1.3 3.5 0
v 1.1 3.5 -0.2
v 1.3 3.5 -0.2
v 1.1 3.5 -0.5
v 1.2 3.5 -0.5
v 1.3 3.5 -0.5
v 1.1 3.5 -1.5
v 1.3 3.5 -1.5
v 1.1 3.5 -1.6
v 1.2 3.5 -1.6
v 1.1 3.5 -1.9
v 1.2 3.5 -1.9
v 1.1 3.5 -2
v 1.3 3.5 -2
v 1.4 3.6 0
v 1.7 3.6 0
v 1.8 3.6 0
v 2 3.6 0
v 1.7 3.6 -0.1
v 1.8 3.6 -0.1
v 1.4 3.6 -0.2
v 2 3.6 -0.2
v 1.4 3.6 -1.8
v 2 3.6 -1.8
v 1.7 3.6 -1.9
v 1.8 3.6 -1.9
v 1.4 3.6 -2
v 1.7 3.6 -2
v 1.8 3.6 -2
v 2 3.6 -2
v 1.3 3.7 0
v 1.4 3.7 0
v 1.4 3.7 -0.2
v 1.3 3.7 -0.3
v 1.4 3.7 -0.3
v 1.3 3.7 -1.7
v 1.4 3.7 -1.7
v 1.4 3.7 -1.8
v 1.3 3.7 -2
v 1.4 3.7 -2
v 1.4 4 -0.2
v 2 4 -0.2
v 1.3 4 -0.3
v 1.4 4 -0.3
v 1.1 4 -0.5
v 1.3 4 -0.5
v 1.1 4 -1.5
v 1.3 4 -1.5
v 1.3 4 -1.7
v 1.4 4 -1.7
v 1.4 4 -1.8
v 2 4 -1.8

# faces
f 3/1/1 2/1/1 1/1/1
f 4/1/1 2/1/1 3/1/1
f 5/1/1 2/1/1 4/1/1
f 6/1/1 2/1/1 5/1/1
f 12/1/1 5/1/1 4/1/1
f 13/1/1 5/1/1 12/1/1
f 14/1/1 10/1/1 9/1/1
f 15/3/1 11/3/1 10/3/1
f 15/1/1 10/1/1 14/1/1
f 16/2/1 8/2/1 7/2/1
f 19/2/1 13/2/1 12/2/1
f 23/3/1 15/3/1 14/3/1
f 24/3/1 11/3/1 15/3/1
f 24/3/1 15/3/1 23/3/1
f 25/2/1 13/2/1 19/2/1
f 25/2/1 19/2/1 18/2/1
f 26/2/1 13/2/1 25/2/1
f 27/2/1 13/2/1 26/2/1
f 28/1/1 21/1/1 20/1/1
f 29/2/1 25/2/1 18/2/1
f 30/2/1 25/2/1 29/2/1
f 32/2/1 27/2/1 26/2/1
f 32/2/1 28/2/1 27/2/1
f 33/2/1 28/2/1 32/2/1
f 34/2/1 31/2/1 30/2/1
f 35/2/1 31/2/1 34/2/1
f 36/2/1 16/2/1 7/2/1
f 36/2/1 17/2/1 16/2/1
f 37/1/1 18/1/1 17/1/1
f 37/2/1 17/2/1 36/2/1
f 39/2/1 31/2/1 35/2/1
f 40/2/1 36/2/1 7/2/1
f 41/3/1 37/3/1 36/3/1
f 41/2/1 36/2/1 40/2/1
f 42/1/1 18/1/1 37/1/1
f 42/3/1 37/3/1 41/3/1
f 43/2/1 29/2/1 18/2/1
f 43/1/1 18/1/1 42/1/1
f 44/2/1 29/2/1 43/2/1
f 45/2/1 39/2/1 38/2/1
f 46/2/1 31/2/1 39/2/1
f 46/2/1 39/2/1 45/2/1
f 47/2/1 32/2/1 26/2/1
f 48/2/1 32/2/1 47/2/1
f 49/2/1 28/2/1 33/2/1
f 50/1/1 21/1/1 28/1/1
f 50/2/1 28/2/1 49/2/1
f 51/3/1 22/3/1 21/3/1
f 51/1/1 21/1/1 50/1/1
f 52/2/1 23/2/1 22/2/1
f 52/3/1 22/3/1 51/3/1
f 52/2/1 24/2/1 23/2/1
f 53/3/1 11/3/1 24/3/1
f 53/2/1 24/2/1 52/2/1
f 54/3/1 11/3/1 53/3/1
f 55/1/1 51/1/1 50/1/1
f 55/1/1 44/1/1 43/1/1
f 55/1/1 47/1/1 46/1/1
f 55/1/1 50/1/1 49/1/1
f 55/1/1 43/1/1 42/1/1
f 55/1/1 45/1/1 44/1/1
f 55/1/1 48/1/1 47/1/1
f 55/1/1 46/1/1 45/1/1
f 55/1/1 49/1/1 48/1/1
f 56/1/1 51/1/1 55/1/1
f 57/1/1 51/1/1 56/1/1
f 58/1/1 51/1/1 57/1/1
f 59/3/1 56/3/1 55/3/1
f 59/1/1 57/1/1 56/1/1
f 60/2/1 58/2/1 57/2/1
f 60/1/1 57/1/1 59/1/1
f 61/3/1 60/3/1 59/3/1
f 61/2/1 58/2/1 60/2/1
f 62/2/1 58/2/1 61/2/1
f 63/3/1 59/3/1 55/3/1
f 63/3/1 61/3/1 59/3/1
f 63/3/1 62/3/1 61/3/1
f 64/3/1 62/3/1 63/3/1
f 72/1/1 66/1/1 65/1/1
f 73/1/1 70/1/1 69/1/1
f 75/3/1 67/3/1 66/3/1
f 76/3/1 69/3/1 68/3/1
f 77/1/1 73/1/1 69/1/1
f 77/3/1 69/3/1 76/3/1
f 78/3/1 74/3/1 73/3/1
f 79/3/1 75/3/1 66/3/1
f 79/1/1 66/1/1 72/1/1
f 80/3/1 75/3/1 79/3/1
f 81/2/1 72/2/1 71/2/1
f 82/1/1 79/1/1 72/1/1
f 82/2/1 72/2/1 81/2/1
f 83/2/1 80/2/1 79/2/1
f 83/1/1 79/1/1 82/1/1
f 84/2/1 80/2/1 83/2/1
f 85/1/1 73/1/1 77/1/1
f 85/2/1 77/2/1 76/2/1
f 86/3/1 78/3/1 73/3/1
f 86/1/1 73/1/1 85/1/1
f 87/3/1 78/3/1 86/3/1
f 88/3/1 78/3/1 87/3/1
f 91/2/1 85/2/1 76/2/1
f 92/2/1 85/2/1 91/2/1
f 94/3/1 90/3/1 89/3/1
f 95/3/1 90/3/1 94/3/1
f 98/2/1 94/2/1 93/2/1
f 100/2/1 98/2/1 93/2/1
f 100/2/1 99/2/1 98/2/1
f 101/2/1 99/2/1 100/2/1
f 102/2/1 100/2/1 93/2/1
f 103/2/1 100/2/1 102/2/1
f 104/3/1 90/3/1 95/3/1
f 105/3/1 90/3/1 104/3/1
f 106/2/1 97/2/1 96/2/1
f 107/2/1 97/2/1 106/2/1
f 112/3/1 109/3/1 108/3/1
f 114/3/1 112/3/1 108/3/1
f 115/3/1 112/3/1 114/3/1
f 116/3/1 111/3/1 110/3/1
f 118/2/1 115/2/1 114/2/1
f 118/2/1 114/2/1 113/2/1
f 119/2/1 115/2/1 118/2/1
f 120/3/1 117/3/1 116/3/1
f 120/3/1 116/3/1 110/3/1
f 121/3/1 117/3/1 120/3/1
f 127/2/1 123/2/1 122/2/1
f 128/3/1 124/3/1 123/3/1
f 128/2/1 123/2/1 127/2/1
f 129/3/1 126/3/1 125/3/1
f 130/3/1 126/3/1 129/3/1
f 131/3/1 128/3/1 127/3/1
f 132/3/1 124/3/1 128/3/1
f 132/3/1 128/3/1 131/3/1
f 133/2/1 130/2/1 129/2/1
f 134/2/1 130/2/1 133/2/1
f 135/2/1 133/2/1 129/2/1
f 136/2/1 133/2/1 135/2/1
f 137/3/1 124/3/1 132/3/1
f 138/3/1 124/3/1 137/3/1
f 139/3/1 136/3/1 135/3/1
f 140/3/1 136/3/1 139/3/1
f 145/3/1 142/3/1 141/3/1
f 146/3/1 142/3/1 145/3/1
f 147/3/1 144/3/1 143/3/1
f 148/3/1 144/3/1 147/3/1
f 149/3/1 142/3/1 146/3/1
f 150/3/1 142/3/1 149/3/1
f 151/3/1 147/3/1 143/3/1
f 152/3/1 147/3/1 151/3/1
f 157/3/1 156/3/1 155/3/1
f 158/3/1 154/3/1 153/3/1
f 159/3/1 154/3/1 158/3/1
f 160/3/1 156/3/1 157/3/1
f 161/3/1 156/3/1 160/3/1
f 164/3/1 163/3/1 162/3/1
f 165/3/1 163/3/1 164/3/1
f 170/3/1 167/3/1 166/3/1
f 171/3/1 167/3/1 170/3/1
f 172/3/1 169/3/1 168/3/1
f 173/3/1 169/3/1 172/3/1
f 178/3/1 175/3/1 174/3/1
f 179/3/1 175/3/1 178/3/1
f 180/3/1 177/3/1 176/3/1
f 181/3/1 177/3/1 180/3/1
f 182/2/2 183/2/2 188/2/2
f 188/2/2 183/2/2 189/2/2
f 186/2/2 187/2/2 190/2/2
f 190/2/2 187/2/2 191/2/2
f 184/3/2 185/3/2 192/3/2
f 192/3/2 185/3/2 193/3/2
f 194/3/2 195/3/2 198/3/2
f 198/3/2 195/3/2 199/3/2
f 196/2/2 197/2/2 200/2/2
f 200/2/2 197/2/2 201/2/2
f 202/3/2 203/3/2 206/3/2
f 206/3/2 203/3/2 207/3/2
f 204/3/2 205/3/2 208/3/2
f 208/3/2 205/3/2 209/3/2
f 210/3/2 211/3/2 212/3/2
f 212/3/2 211/3/2 213/3/2
f 213/3/2 211/3/2 214/3/2
f 214/3/2 211/3/2 215/3/2
f 213/3/2 214/3/2 216/3/2
f 216/3/2 214/3/2 217/3/2
f 221/2/3 219/2/3 218/2/3
f 222/2/3 219/2/3 221/2/3
f 227/2/3 221/2/3 220/2/3
f 227/2/3 222/2/3 221/2/3
f 227/2/3 223/2/3 222/2/3
f 228/2/3 223/2/3 227/2/3
f 229/3/3 224/3/3 223/3/3
f 229/2/3 223/2/3 228/2/3
f 230/3/3 224/3/3 229/3/3
f 231/3/3 226/3/3 225/3/3
f 232/3/3 229/3/3 228/3/3
f 233/3/3 231/3/3 225/3/3
f 233/3/3 232/3/3 231/3/3
f 234/3/3 229/3/3 232/3/3
f 234/3/3 232/3/3 233/3/3
f 235/3/3 233/3/3 225/3/3
f 237/3/3 235/3/3 225/3/3
f 237/3/3 236/3/3 235/3/3
f 238/3/3 236/3/3 237/3/3
f 242/3/3 240/3/3 239/3/3
f 242/3/3 241/3/3 240/3/3
f 243/3/3 241/3/3 242/3/3
f 246/3/3 245/3/3 244/3/3
f 247/3/3 245/3/3 246/3/3
f 251/3/3 249/3/3 248/3/3
f 251/3/3 250/3/3 249/3/3
f 252/3/3 250/3/3 251/3/3
f 255/3/3 254/3/3 253/3/3
f 256/3/3 254/3/3 255/3/3
f 259/3/3 258/3/3 257/3/3
f 260/3/3 258/3/3 259/3/3
f 266/1/3 262/1/3 261/1/3
f 267/1/3 262/1/3 266/1/3
f 269/1/3 264/1/3 263/1/3
f 270/3/3 265/3/3 264/3/3
f 270/1/3 264/1/3 269/1/3
f 271/3/3 267/3/3 266/3/3
f 272/1/3 268/1/3 267/1/3
f 272/3/3 267/3/3 271/3/3
f 273/1/3 268/1/3 272/1/3
f 274/1/3 268/1/3 273/1/3
f 275/3/3 270/3/3 269/3/3
f 276/3/3 265/3/3 270/3/3
f 276/3/3 270/3/3 275/3/3
f 280/1/3 278/1/3 277/1/3
f 281/2/3 279/2/3 278/2/3
f 281/1/3 278/1/3 280/1/3
f 282/2/3 279/2/3 281/2/3
f 283/2/3 279/2/3 282/2/3
f 288/2/3 285/2/3 284/2/3
f 289/2/3 285/2/3 288/2/3
f 290/2/3 287/2/3 286/2/3
f 291/2/3 287/2/3 290/2/3
f 294/2/3 293/2/3 292/2/3
f 295/2/3 293/2/3 294/2/3
f 298/2/3 297/2/3 296/2/3
f 299/2/3 297/2/3 298/2/3
f 302/2/3 301/2/3 300/2/3
f 303/2/3 301/2/3 302/2/3
f 306/1/3 305/1/3 304/1/3
f 307/1/3 305/1/3 306/1/3
f 310/3/3 309/3/3 308/3/3
f 311/3/3 309/3/3 310/3/3
f 315/1/3 313/1/3 312/1/3
f 316/3/3 314/3/3 313/3/3
f 316/1/3 313/1/3 315/1/3
f 317/3/3 314/3/3 316/3/3
f 318/2/4 319/2/4 320/2/4
f 320/2/4 319/2/4 321/2/4
f 322/2/4 323/2/4 324/2/4
f 324/2/4 323/2/4 325/2/4
f 326/2/4 327/2/4 328/2/4
f 328/2/4 327/2/4 329/2/4
f 330/2/4 331/2/4 332/2/4
f 332/2/4 331/2/4 333/2/4
f 334/2/4 335/2/4 336/2/4
f 336/2/4 335/2/4 337/2/4
f 338/1/4 339/1/4 341/1/4
f 339/2/4 340/2/4 342/2/4
f 341/1/4 339/1/4 342/1/4
f 342/2/4 340/2/4 343/2/4
f 344/3/4 345/3/4 346/3/4
f 346/3/4 345/3/4 347/3/4
f 348/1/4 349/1/4 354/1/4
f 348/1/4 354/1/4 356/1/4
f 354/1/4 355/1/4 356/1/4
f 356/1/4 355/1/4 357/1/4
f 350/1/4 351/1/4 358/1/4
f 351/2/4 352/2/4 359/2/4
f 358/1/4 351/1/4 359/1/4
f 352/3/4 353/3/4 360/3/4
f 359/2/4 352/2/4 360/2/4
f 360/3/4 353/3/4 361/3/4
f 362/3/4 363/3/4 364/3/4
f 364/3/4 363/3/4 365/3/4
f 366/2/4 367/2/4 369/2/4
f 367/3/4 368/3/4 370/3/4
f 369/2/4 367/2/4 370/2/4
f 370/3/4 368/3/4 371/3/4
f 372/3/4 373/3/4 375/3/4
f 373/3/4 374/3/4 375/3/4
f 375/3/4 374/3/4 376/3/4
f 377/3/4 378/3/4 380/3/4
f 378/3/4 379/3/4 380/3/4
f 380/3/4 379/3/4 381/3/4
f 382/3/4 383/3/4 384/3/4
f 384/3/4 383/3/4 385/3/4
f 386/3/4 387/3/4 389/3/4
f 389/3/4 387/3/4 390/3/4
f 388/3/4 389/3/4 395/3/4
f 389/3/4 390/3/4 395/3/4
f 390/3/4 391/3/4 395/3/4
f 395/3/4 391/3/4 396/3/4
f 391/2/4 392/2/4 397/2/4
f 396/3/4 391/3/4 397/3/4
f 397/2/4 392/2/4 398/2/4
f 393/3/4 394/3/4 399/3/4
f 396/3/4 397/3/4 400/3/4
f 393/3/4 399/3/4 401/3/4
f 399/3/4 400/3/4 401/3/4
f 400/3/4 397/3/4 402/3/4
f 401/3/4 400/3/4 402/3/4
f 393/3/4 401/3/4 403/3/4
f 393/3/4 403/3/4 405/3/4
f 403/3/4 404/3/4 405/3/4
f 405/3/4 404/3/4 406/3/4
f 410/3/5 408/3/5 407/3/5
f 413/3/5 410/3/5 409/3/5
f 414/1/5 412/1/5 411/1/5
f 414/3/5 413/3/5 412/3/5
f 415/3/5 410/3/5 413/3/5
f 415/3/5 413/3/5 414/3/5
f 416/1/5 414/1/5 411/1/5
f 416/1/5 415/1/5 414/1/5
f 417/3/5 410/3/5 415/3/5
f 417/1/5 415/1/5 416/1/5
f 418/3/5 410/3/5 417/3/5
f 419/3/5 408/3/5 410/3/5
f 419/3/5 410/3/5 418/3/5
f 420/3/5 408/3/5 419/3/5
f 421/3/5 408/3/5 420/3/5
f 424/2/5 423/2/5 422/2/5
f 425/2/5 424/2/5 422/2/5
f 426/2/5 424/2/5 425/2/5
f 429/3/5 428/3/5 427/3/5
f 430/3/5 429/3/5 427/3/5
f 431/3/5 429/3/5 430/3/5
f 434/2/5 433/2/5 432/2/5
f 435/2/5 433/2/5 434/2/5
f 436/2/5 433/2/5 435/2/5
f 437/2/5 433/2/5 436/2/5
f 441/3/5 439/3/5 438/3/5
f 442/1/5 441/1/5 440/1/5
f 443/3/5 439/3/5 441/3/5
f 443/1/5 441/1/5 442/1/5
f 444/3/5 443/3/5 442/3/5
f 445/3/5 439/3/5 443/3/5
f 445/3/5 443/3/5 444/3/5
f 448/2/5 447/2/5 446/2/5
f 449/2/5 447/2/5 448/2/5
f 450/1/5 449/1/5 448/1/5
f 451/1/5 449/1/5 450/1/5
f 452/2/5 451/2/5 450/2/5
f 453/2/5 451/2/5 452/2/5
f 456/1/5 455/1/5 454/1/5
f 457/1/5 455/1/5 456/1/5
f 458/3/5 457/3/5 456/3/5
f 459/3/5 457/3/5 458/3/5
f 460/2/5 459/2/5 458/2/5
f 461/2/5 459/2/5 460/2/5
f 464/2/5 463/2/5 462/2/5
f 465/2/5 463/2/5 464/2/5
f 468/2/5 467/2/5 466/2/5
f 469/2/5 467/2/5 468/2/5
f 472/2/5 471/2/5 470/2/5
f 473/2/5 471/2/5 472/2/5
f 476/3/5 475/3/5 474/3/5
f 477/3/5 475/3/5 476/3/5
f 480/1/5 479/1/5 478/1/5
f 481/1/5 479/1/5 480/1/5
f 484/1/5 483/1/5 482/1/5
f 485/1/5 483/1/5 484/1/5
f 488/1/5 487/1/5 486/1/5
f 489/1/5 487/1/5 488/1/5
f 492/3/5 491/3/5 490/3/5
f 493/3/5 491/3/5 492/3/5
f 496/3/5 495/3/5 494/3/5
f 497/3/5 495/3/5 496/3/5
f 498/3/6 499/3/6 502/3/6
f 502/3/6 499/3/6 503/3/6
f 500/3/6 501/3/6 504/3/6
f 504/3/6 501/3/6 505/3/6
f 506/1/6 507/1/6 508/1/6
f 506/1/6 508/1/6 509/1/6
f 509/1/6 508/1/6 510/1/6
f 511/1/6 512/1/6 513/1/6
f 511/1/6 513/1/6 514/1/6
f 514/1/6 513/1/6 515/1/6
f 516/3/6 517/3/6 520/3/6
f 520/3/6 517/3/6 521/3/6
f 518/3/6 519/3/6 522/3/6
f 522/3/6 519/3/6 523/3/6
f 524/2/6 525/2/6 526/2/6
f 526/2/6 525/2/6 527/2/6
f 528/2/6 529/2/6 530/2/6
f 530/2/6 529/2/6 531/2/6
f 532/2/6 533/2/6 534/2/6
f 534/2/6 533/2/6 535/2/6
f 536/2/6 537/2/6 538/2/6
f 538/2/6 537/2/6 539/2/6
f 540/3/6 541/3/6 542/3/6
f 542/3/6 541/3/6 543/3/6
f 544/2/6 545/2/6 546/2/6
f 546/2/6 545/2/6 547/2/6
f 546/3/6 547/3/6 548/3/6
f 548/3/6 547/3/6 549/3/6
f 549/3/6 547/3/6 550/3/6
f 551/3/6 552/3/6 553/3/6
f 553/3/6 552/3/6 554/3/6
f 553/2/6 554/2/6 555/2/6
f 554/3/6 552/3/6 556/3/6
f 555/2/6 554/2/6 556/2/6
f 555/3/6 556/3/6 557/3/6
f 556/3/6 552/3/6 558/3/6
f 557/3/6 556/3/6 558/3/6
f 559/3/6 560/3/6 563/3/6
f 561/3/6 562/3/6 564/3/6
f 559/3/6 563/3/6 565/3/6
f 563/3/6 564/3/6 565/3/6
f 564/3/6 562/3/6 566/3/6
f 565/3/6 564/3/6 566/3/6
f 567/3/6 568/3/6 569/3/6
f 569/3/6 568/3/6 570/3/6
f 567/3/6 569/3/6 571/3/6
f 571/3/6 569/3/6 572/3/6
f 570/3/6 568/3/6 573/3/6
f 573/3/6 568/3/6 574/3/6
f 575/3/6 576/3/6 577/3/6
f 575/3/6 577/3/6 578/3/6
f 578/3/6 577/3/6 579/3/6
f 580/2/6 581/2/6 582/2/6
f 580/2/6 582/2/6 583/2/6
f 583/2/6 582/2/6 584/2/6
f 585/3/6 586/3/6 588/3/6
f 587/3/6 588/3/6 590/3/6
f 589/3/6 590/3/6 591/3/6
f 590/3/6 588/3/6 592/3/6
f 591/3/6 590/3/6 592/3/6
f 592/3/6 588/3/6 593/3/6
f 588/3/6 586/3/6 594/3/6
f 593/3/6 588/3/6 594/3/6
f 594/3/6 586/3/6 595/3/6
f 595/3/6 586/3/6 596/3/6
