# MagicaVoxel @ Ephtracy

# group
o 

# material
mtllib GradeTable.mtl
usemtl palette

# normals
vn -1 0 0
vn 1 0 0
vn 0 0 1
vn 0 0 -1
vn 0 -1 0
vn 0 1 0

# texcoords
vt 0.0214844 0.5
vt 0.986328 0.5
vt 0.994141 0.5

# verts
v 0 2 0
v 0 2 -4
v 0 4.3 0
v 0 4.3 -4
v 0.9 4.3 0
v 0.9 4.3 -4
v 0.9 4.8 0
v 0.9 4.8 -0.7
v 0.9 5 -0.7
v 0.9 5 -3.2
v 0.9 5 -4
v 0.9 5.6 -0.7
v 0.9 5.6 -0.8
v 0.9 5.7 -0.8
v 0.9 5.7 -1.1
v 0.9 5.7 -3
v 0.9 5.7 -3.2
v 0.9 5.8 -2.9
v 0.9 5.8 -3
v 0.9 5.9 -1.1
v 0.9 5.9 -1.4
v 0.9 5.9 -2.5
v 0.9 5.9 -2.9
v 0.9 6 -1.4
v 0.9 6 -2.5
v 2.4 4.6 0
v 2.4 4.6 -4
v 2.4 5.2 0
v 2.4 5.2 -4
v 1.9 4.6 0
v 1.9 4.6 -4
v 1.9 4.8 0
v 1.9 4.8 -0.7
v 1.9 5 -0.7
v 1.9 5 -0.9
v 1.9 5 -3.2
v 1.9 5 -4
v 1.9 5.1 -0.9
v 1.9 5.1 -3.2
v 1.9 5.6 -0.7
v 1.9 5.6 -0.8
v 1.9 5.7 -0.8
v 1.9 5.7 -1.1
v 1.9 5.7 -3
v 1.9 5.7 -3.2
v 1.9 5.8 -2.9
v 1.9 5.8 -3
v 1.9 5.9 -1.1
v 1.9 5.9 -1.4
v 1.9 5.9 -2.5
v 1.9 5.9 -2.9
v 1.9 6 -1.4
v 1.9 6 -2.5
v 4 2 0
v 4 2 -4
v 4 5.2 0
v 4 5.2 -4
v 0 2 0
v 0 4.3 0
v 0.5 3 0
v 0.5 3.9 0
v 0.6 3.1 0
v 0.6 3.8 0
v 0.9 4.3 0
v 0.9 4.8 0
v 1 3 0
v 1 3.1 0
v 1 3.8 0
v 1 3.9 0
v 1.1 3.1 0
v 1.1 3.8 0
v 1.4 3 0
v 1.4 3.7 0
v 1.5 3 0
v 1.5 3.3 0
v 1.5 3.4 0
v 1.5 3.7 0
v 1.5 3.8 0
v 1.6 3.7 0
v 1.6 3.8 0
v 1.6 3.9 0
v 1.7 2.5 0
v 1.7 2.6 0
v 1.7 3.7 0
v 1.7 3.8 0
v 1.7 3.9 0
v 1.8 3 0
v 1.8 3.3 0
v 1.8 3.4 0
v 1.8 3.7 0
v 1.8 3.8 0
v 1.9 3 0
v 1.9 3.7 0
v 1.9 4.6 0
v 1.9 4.8 0
v 2.1 3 0
v 2.1 3.9 0
v 2.2 2.2 0
v 2.2 2.5 0
v 2.2 2.6 0
v 2.2 2.9 0
v 2.2 3 0
v 2.2 3.6 0
v 2.2 3.7 0
v 2.2 3.9 0
v 2.3 2.2 0
v 2.3 2.5 0
v 2.3 2.6 0
v 2.3 2.9 0
v 2.3 3.5 0
v 2.3 3.6 0
v 2.3 3.7 0
v 2.4 3.4 0
v 2.4 3.5 0
v 2.4 3.6 0
v 2.4 4.6 0
v 2.4 5.2 0
v 2.5 3.4 0
v 2.5 3.5 0
v 2.5 3.6 0
v 2.6 3.5 0
v 2.6 3.6 0
v 2.6 3.7 0
v 2.7 3 0
v 2.7 3.6 0
v 2.7 3.7 0
v 2.7 3.9 0
v 2.8 2.5 0
v 2.8 2.6 0
v 2.8 3 0
v 2.8 3.9 0
v 3 3 0
v 3 3.9 0
v 3.1 3.1 0
v 3.1 3.8 0
v 3.3 3.3 0
v 3.3 3.4 0
v 3.5 3.1 0
v 3.5 3.3 0
v 3.5 3.7 0
v 3.5 3.8 0
v 3.6 3 0
v 3.6 3.4 0
v 3.6 3.7 0
v 3.6 3.9 0
v 4 2 0
v 4 5.2 0
v 0.9 4.8 -0.7
v 0.9 5 -0.7
v 0.9 5.6 -0.7
v 1.9 4.8 -0.7
v 1.9 5 -0.7
v 1.9 5.6 -0.7
v 0.9 5.6 -0.8
v 0.9 5.7 -0.8
v 1.9 5.6 -0.8
v 1.9 5.7 -0.8
v 0.9 5.7 -1.1
v 0.9 5.9 -1.1
v 1.9 5.7 -1.1
v 1.9 5.9 -1.1
v 0.9 5.9 -1.4
v 0.9 6 -1.4
v 1.9 5.9 -1.4
v 1.9 6 -1.4
v 0.9 5.9 -2.5
v 0.9 6 -2.5
v 1.9 5.9 -2.5
v 1.9 6 -2.5
v 0.9 5.8 -2.9
v 0.9 5.9 -2.9
v 1.9 5.8 -2.9
v 1.9 5.9 -2.9
v 0.9 5.7 -3
v 0.9 5.8 -3
v 1.9 5.7 -3
v 1.9 5.8 -3
v 0.9 5 -3.2
v 0.9 5.7 -3.2
v 1.8 5 -3.2
v 1.8 5.1 -3.2
v 1.9 5 -3.2
v 1.9 5.1 -3.2
v 1.9 5.7 -3.2
v 0 2 -4
v 0 4.3 -4
v 0.9 4.3 -4
v 0.9 5 -4
v 1.9 4.6 -4
v 1.9 5 -4
v 2.4 4.6 -4
v 2.4 5.2 -4
v 4 2 -4
v 4 5.2 -4
v 0 2 0
v 4 2 0
v 0 2 -4
v 4 2 -4
v 0 4.3 0
v 0.9 4.3 0
v 0 4.3 -4
v 0.9 4.3 -4
v 1.9 4.6 0
v 2.4 4.6 0
v 1.9 4.6 -4
v 2.4 4.6 -4
v 0.9 4.8 0
v 1.9 4.8 0
v 0.9 4.8 -0.7
v 1.9 4.8 -0.7
v 0.9 5 -3.2
v 1.8 5 -3.2
v 1.9 5 -3.2
v 0.9 5 -4
v 1.9 5 -4
v 2.4 5.2 0
v 4 5.2 0
v 2.4 5.2 -4
v 4 5.2 -4
v 0.9 5.6 -0.7
v 1.9 5.6 -0.7
v 0.9 5.6 -0.8
v 1.9 5.6 -0.8
v 0.9 5.7 -0.8
v 1.9 5.7 -0.8
v 0.9 5.7 -1.1
v 1.9 5.7 -1.1
v 0.9 5.7 -3
v 1.9 5.7 -3
v 0.9 5.7 -3.2
v 1.9 5.7 -3.2
v 0.9 5.8 -2.9
v 1.9 5.8 -2.9
v 0.9 5.8 -3
v 1.9 5.8 -3
v 0.9 5.9 -1.1
v 1.9 5.9 -1.1
v 0.9 5.9 -1.4
v 1.9 5.9 -1.4
v 0.9 5.9 -2.5
v 1.9 5.9 -2.5
v 0.9 5.9 -2.9
v 1.9 5.9 -2.9
v 0.9 6 -1.4
v 1.9 6 -1.4
v 0.9 6 -2.5
v 1.9 6 -2.5

# faces
f 3/1/1 2/1/1 1/1/1
f 4/1/1 2/1/1 3/1/1
f 7/1/1 6/1/1 5/1/1
f 8/1/1 6/1/1 7/1/1
f 9/1/1 6/1/1 8/1/1
f 10/1/1 6/1/1 9/1/1
f 11/1/1 6/1/1 10/1/1
f 12/2/1 10/2/1 9/2/1
f 13/2/1 10/2/1 12/2/1
f 14/2/1 10/2/1 13/2/1
f 15/2/1 10/2/1 14/2/1
f 16/2/1 10/2/1 15/2/1
f 17/2/1 10/2/1 16/2/1
f 18/2/1 16/2/1 15/2/1
f 19/2/1 16/2/1 18/2/1
f 20/2/1 18/2/1 15/2/1
f 21/2/1 18/2/1 20/2/1
f 22/2/1 18/2/1 21/2/1
f 23/2/1 18/2/1 22/2/1
f 24/2/1 22/2/1 21/2/1
f 25/2/1 22/2/1 24/2/1
f 28/1/1 27/1/1 26/1/1
f 29/1/1 27/1/1 28/1/1
f 30/1/2 31/1/2 32/1/2
f 32/1/2 31/1/2 33/1/2
f 33/1/2 31/1/2 34/1/2
f 34/1/2 31/1/2 35/1/2
f 35/1/2 31/1/2 36/1/2
f 36/1/2 31/1/2 37/1/2
f 34/2/2 35/2/2 38/2/2
f 35/1/2 36/1/2 38/1/2
f 38/1/2 36/1/2 39/1/2
f 34/2/2 38/2/2 40/2/2
f 38/2/2 39/2/2 40/2/2
f 40/2/2 39/2/2 41/2/2
f 41/2/2 39/2/2 42/2/2
f 42/2/2 39/2/2 43/2/2
f 43/2/2 39/2/2 44/2/2
f 44/2/2 39/2/2 45/2/2
f 43/2/2 44/2/2 46/2/2
f 46/2/2 44/2/2 47/2/2
f 43/2/2 46/2/2 48/2/2
f 48/2/2 46/2/2 49/2/2
f 49/2/2 46/2/2 50/2/2
f 50/2/2 46/2/2 51/2/2
f 49/2/2 50/2/2 52/2/2
f 52/2/2 50/2/2 53/2/2
f 54/1/2 55/1/2 56/1/2
f 56/1/2 55/1/2 57/1/2
f 60/1/3 59/1/3 58/1/3
f 61/1/3 59/1/3 60/1/3
f 62/3/3 61/3/3 60/3/3
f 63/3/3 61/3/3 62/3/3
f 64/1/3 59/1/3 61/1/3
f 66/1/3 60/1/3 58/1/3
f 66/3/3 62/3/3 60/3/3
f 67/1/3 63/1/3 62/1/3
f 67/3/3 62/3/3 66/3/3
f 68/3/3 61/3/3 63/3/3
f 68/1/3 63/1/3 67/1/3
f 69/1/3 65/1/3 64/1/3
f 69/3/3 61/3/3 68/3/3
f 69/1/3 64/1/3 61/1/3
f 70/3/3 68/3/3 67/3/3
f 70/1/3 67/1/3 66/1/3
f 71/1/3 69/1/3 68/1/3
f 71/3/3 68/3/3 70/3/3
f 72/1/3 70/1/3 66/1/3
f 72/1/3 66/1/3 58/1/3
f 72/1/3 71/1/3 70/1/3
f 73/1/3 71/1/3 72/1/3
f 74/1/3 72/1/3 58/1/3
f 74/3/3 73/3/3 72/3/3
f 75/3/3 73/3/3 74/3/3
f 76/3/3 73/3/3 75/3/3
f 77/1/3 71/1/3 73/1/3
f 77/3/3 73/3/3 76/3/3
f 78/1/3 69/1/3 71/1/3
f 78/1/3 71/1/3 77/1/3
f 79/1/3 77/1/3 76/1/3
f 79/3/3 78/3/3 77/3/3
f 80/1/3 69/1/3 78/1/3
f 80/3/3 78/3/3 79/3/3
f 81/1/3 65/1/3 69/1/3
f 81/1/3 69/1/3 80/1/3
f 82/1/3 74/1/3 58/1/3
f 82/1/3 75/1/3 74/1/3
f 83/1/3 75/1/3 82/1/3
f 84/1/3 80/1/3 79/1/3
f 84/1/3 79/1/3 76/1/3
f 85/3/3 81/3/3 80/3/3
f 85/1/3 80/1/3 84/1/3
f 86/1/3 65/1/3 81/1/3
f 86/3/3 81/3/3 85/3/3
f 87/1/3 75/1/3 83/1/3
f 88/3/3 76/3/3 75/3/3
f 88/1/3 75/1/3 87/1/3
f 89/1/3 84/1/3 76/1/3
f 89/3/3 76/3/3 88/3/3
f 90/3/3 85/3/3 84/3/3
f 90/1/3 84/1/3 89/1/3
f 91/1/3 86/1/3 85/1/3
f 91/3/3 85/3/3 90/3/3
f 92/1/3 87/1/3 83/1/3
f 92/3/3 89/3/3 88/3/3
f 92/3/3 88/3/3 87/3/3
f 92/3/3 90/3/3 89/3/3
f 93/1/3 91/1/3 90/1/3
f 93/3/3 90/3/3 92/3/3
f 94/1/3 65/1/3 86/1/3
f 94/1/3 91/1/3 93/1/3
f 94/1/3 86/1/3 91/1/3
f 95/1/3 65/1/3 94/1/3
f 96/1/3 93/1/3 92/1/3
f 96/1/3 92/1/3 83/1/3
f 96/1/3 94/1/3 93/1/3
f 97/1/3 94/1/3 96/1/3
f 98/1/3 82/1/3 58/1/3
f 99/3/3 83/3/3 82/3/3
f 99/1/3 82/1/3 98/1/3
f 100/1/3 96/1/3 83/1/3
f 100/3/3 83/3/3 99/3/3
f 101/1/3 96/1/3 100/1/3
f 102/3/3 97/3/3 96/3/3
f 102/1/3 96/1/3 101/1/3
f 103/3/3 97/3/3 102/3/3
f 104/3/3 97/3/3 103/3/3
f 105/1/3 94/1/3 97/1/3
f 105/3/3 97/3/3 104/3/3
f 106/1/3 98/1/3 58/1/3
f 106/3/3 99/3/3 98/3/3
f 106/3/3 101/3/3 100/3/3
f 106/3/3 100/3/3 99/3/3
f 107/3/3 101/3/3 106/3/3
f 108/3/3 101/3/3 107/3/3
f 109/1/3 103/1/3 102/1/3
f 109/3/3 101/3/3 108/3/3
f 109/1/3 102/1/3 101/1/3
f 110/1/3 103/1/3 109/1/3
f 111/3/3 104/3/3 103/3/3
f 111/1/3 103/1/3 110/1/3
f 112/1/3 105/1/3 104/1/3
f 112/3/3 104/3/3 111/3/3
f 113/1/3 110/1/3 109/1/3
f 113/1/3 109/1/3 108/1/3
f 114/3/3 111/3/3 110/3/3
f 114/1/3 110/1/3 113/1/3
f 115/1/3 112/1/3 111/1/3
f 115/3/3 111/3/3 114/3/3
f 116/1/3 94/1/3 105/1/3
f 116/1/3 112/1/3 115/1/3
f 116/1/3 105/1/3 112/1/3
f 118/3/3 114/3/3 113/3/3
f 118/1/3 113/1/3 108/1/3
f 119/1/3 116/1/3 115/1/3
f 119/3/3 114/3/3 118/3/3
f 119/1/3 115/1/3 114/1/3
f 119/1/3 117/1/3 116/1/3
f 120/1/3 117/1/3 119/1/3
f 121/1/3 119/1/3 118/1/3
f 121/3/3 120/3/3 119/3/3
f 122/1/3 117/1/3 120/1/3
f 122/3/3 120/3/3 121/3/3
f 123/1/3 117/1/3 122/1/3
f 124/1/3 118/1/3 108/1/3
f 124/1/3 121/1/3 118/1/3
f 124/1/3 122/1/3 121/1/3
f 125/3/3 123/3/3 122/3/3
f 125/1/3 122/1/3 124/1/3
f 126/1/3 117/1/3 123/1/3
f 126/3/3 123/3/3 125/3/3
f 127/1/3 117/1/3 126/1/3
f 128/1/3 107/1/3 106/1/3
f 128/3/3 108/3/3 107/3/3
f 129/1/3 124/1/3 108/1/3
f 129/3/3 108/3/3 128/3/3
f 130/3/3 125/3/3 124/3/3
f 130/1/3 124/1/3 129/1/3
f 130/3/3 127/3/3 126/3/3
f 130/3/3 126/3/3 125/3/3
f 131/1/3 117/1/3 127/1/3
f 131/3/3 127/3/3 130/3/3
f 132/1/3 129/1/3 128/1/3
f 132/1/3 130/1/3 129/1/3
f 132/1/3 131/1/3 130/1/3
f 133/1/3 117/1/3 131/1/3
f 133/1/3 131/1/3 132/1/3
f 134/3/3 133/3/3 132/3/3
f 135/3/3 133/3/3 134/3/3
f 136/1/3 135/1/3 134/1/3
f 137/1/3 135/1/3 136/1/3
f 138/3/3 134/3/3 132/3/3
f 138/1/3 136/1/3 134/1/3
f 139/3/3 137/3/3 136/3/3
f 139/1/3 136/1/3 138/1/3
f 140/1/3 135/1/3 137/1/3
f 141/3/3 133/3/3 135/3/3
f 141/1/3 135/1/3 140/1/3
f 142/1/3 132/1/3 128/1/3
f 142/3/3 138/3/3 132/3/3
f 142/3/3 139/3/3 138/3/3
f 143/3/3 137/3/3 139/3/3
f 143/3/3 139/3/3 142/3/3
f 143/1/3 140/1/3 137/1/3
f 144/3/3 141/3/3 140/3/3
f 144/1/3 140/1/3 143/1/3
f 145/3/3 133/3/3 141/3/3
f 145/3/3 141/3/3 144/3/3
f 145/1/3 117/1/3 133/1/3
f 146/1/3 144/1/3 143/1/3
f 146/1/3 106/1/3 58/1/3
f 146/1/3 145/1/3 144/1/3
f 146/1/3 142/1/3 128/1/3
f 146/1/3 143/1/3 142/1/3
f 146/1/3 128/1/3 106/1/3
f 147/1/3 117/1/3 145/1/3
f 147/1/3 145/1/3 146/1/3
f 151/1/3 149/1/3 148/1/3
f 152/2/3 150/2/3 149/2/3
f 152/1/3 149/1/3 151/1/3
f 153/2/3 150/2/3 152/2/3
f 156/2/3 155/2/3 154/2/3
f 157/2/3 155/2/3 156/2/3
f 160/2/3 159/2/3 158/2/3
f 161/2/3 159/2/3 160/2/3
f 164/2/3 163/2/3 162/2/3
f 165/2/3 163/2/3 164/2/3
f 166/2/4 167/2/4 168/2/4
f 168/2/4 167/2/4 169/2/4
f 170/2/4 171/2/4 172/2/4
f 172/2/4 171/2/4 173/2/4
f 174/2/4 175/2/4 176/2/4
f 176/2/4 175/2/4 177/2/4
f 178/2/4 179/2/4 180/2/4
f 180/2/4 179/2/4 181/2/4
f 180/1/4 181/1/4 182/1/4
f 181/2/4 179/2/4 183/2/4
f 182/1/4 181/1/4 183/1/4
f 183/2/4 179/2/4 184/2/4
f 185/1/4 186/1/4 187/1/4
f 187/1/4 188/1/4 189/1/4
f 189/1/4 188/1/4 190/1/4
f 187/1/4 189/1/4 191/1/4
f 185/1/4 187/1/4 193/1/4
f 191/1/4 192/1/4 193/1/4
f 187/1/4 191/1/4 193/1/4
f 193/1/4 192/1/4 194/1/4
f 197/1/5 196/1/5 195/1/5
f 198/1/5 196/1/5 197/1/5
f 199/1/6 200/1/6 201/1/6
f 201/1/6 200/1/6 202/1/6
f 203/1/6 204/1/6 205/1/6
f 205/1/6 204/1/6 206/1/6
f 207/1/6 208/1/6 209/1/6
f 209/1/6 208/1/6 210/1/6
f 211/1/6 212/1/6 214/1/6
f 212/1/6 213/1/6 214/1/6
f 214/1/6 213/1/6 215/1/6
f 216/1/6 217/1/6 218/1/6
f 218/1/6 217/1/6 219/1/6
f 220/2/6 221/2/6 222/2/6
f 222/2/6 221/2/6 223/2/6
f 224/2/6 225/2/6 226/2/6
f 226/2/6 225/2/6 227/2/6
f 228/2/6 229/2/6 230/2/6
f 230/2/6 229/2/6 231/2/6
f 232/2/6 233/2/6 234/2/6
f 234/2/6 233/2/6 235/2/6
f 236/2/6 237/2/6 238/2/6
f 238/2/6 237/2/6 239/2/6
f 240/2/6 241/2/6 242/2/6
f 242/2/6 241/2/6 243/2/6
f 244/2/6 245/2/6 246/2/6
f 246/2/6 245/2/6 247/2/6
