# MagicaVoxel @ Ephtracy

# group
o 

# material
mtllib car.mtl
usemtl palette

# normals
vn -1 0 0
vn 1 0 0
vn 0 0 1
vn 0 0 -1
vn 0 -1 0
vn 0 1 0

# texcoords
vt 0.0722656 0.5
vt 0.123047 0.5
vt 0.154297 0.5
vt 0.279297 0.5
vt 0.681641 0.5
vt 0.982422 0.5
vt 0.994141 0.5

# verts
v 0 2.1 0
v 0 2.1 -0.4
v 0 2.1 -0.6
v 0 2.1 -1
v 0 2.3 0
v 0 2.3 -0.3
v 0 2.3 -0.7
v 0 2.3 -1
v 0 2.4 0
v 0 2.4 -0.1
v 0 2.4 -0.4
v 0 2.4 -0.6
v 0 2.4 -0.9
v 0 2.4 -1
v 0 2.5 -0.1
v 0 2.5 -0.3
v 0 2.5 -0.7
v 0 2.5 -0.9
v 0.1 2 -0.1
v 0.1 2 -0.9
v 0.1 2.1 -0.1
v 0.1 2.1 -0.4
v 0.1 2.1 -0.6
v 0.1 2.1 -0.9
v 0.1 2.4 0
v 0.1 2.4 -0.1
v 0.1 2.4 -0.9
v 0.1 2.4 -1
v 0.1 2.5 0
v 0.1 2.5 -0.1
v 0.1 2.5 -0.9
v 0.1 2.5 -1
v 0.4 2 0
v 0.4 2 -0.1
v 0.4 2 -0.9
v 0.4 2 -1
v 0.4 2.1 0
v 0.4 2.1 -0.1
v 0.4 2.1 -0.9
v 0.4 2.1 -1
v 1 2.5 0
v 1 2.5 -0.2
v 1 2.5 -0.8
v 1 2.5 -1
v 1 2.7 0
v 1 2.7 -0.1
v 1 2.7 -0.9
v 1 2.7 -1
v 1 2.8 -0.1
v 1 2.8 -0.9
v 1.1 2.7 0
v 1.1 2.7 -0.1
v 1.1 2.7 -0.9
v 1.1 2.7 -1
v 1.1 2.8 0
v 1.1 2.8 -0.1
v 1.1 2.8 -0.9
v 1.1 2.8 -1
v 1.1 2.9 -0.1
v 1.1 2.9 -0.9
v 1.2 2.8 0
v 1.2 2.8 -0.1
v 1.2 2.8 -0.9
v 1.2 2.8 -1
v 1.2 2.9 0
v 1.2 2.9 -0.1
v 1.2 2.9 -0.9
v 1.2 2.9 -1
v 1.2 3 -0.1
v 1.2 3 -0.9
v 1.4 2.9 0
v 1.4 2.9 -0.1
v 1.4 2.9 -0.9
v 1.4 2.9 -1
v 1.4 3 0
v 1.4 3 -0.1
v 1.4 3 -0.9
v 1.4 3 -1
v 1.9 2 0
v 1.9 2 -0.1
v 1.9 2 -0.9
v 1.9 2 -1
v 1.9 2.1 0
v 1.9 2.1 -0.1
v 1.9 2.1 -0.9
v 1.9 2.1 -1
v 2.9 2.5 -0.1
v 2.9 2.5 -0.3
v 2.9 2.5 -0.7
v 2.9 2.5 -0.9
v 2.9 2.7 -0.3
v 2.9 2.7 -0.7
v 2.9 2.8 -0.1
v 2.9 2.8 -0.9
v 1.1 2 0
v 1.1 2 -0.1
v 1.1 2 -0.9
v 1.1 2 -1
v 1.1 2.1 0
v 1.1 2.1 -0.1
v 1.1 2.1 -0.9
v 1.1 2.1 -1
v 1.7 2.9 0
v 1.7 2.9 -0.1
v 1.7 2.9 -0.9
v 1.7 2.9 -1
v 1.7 3 0
v 1.7 3 -0.1
v 1.7 3 -0.9
v 1.7 3 -1
v 2 2.5 -0.1
v 2 2.5 -0.9
v 2 2.8 0
v 2 2.8 -0.1
v 2 2.8 -0.9
v 2 2.8 -1
v 2 2.9 0
v 2 2.9 -0.1
v 2 2.9 -0.9
v 2 2.9 -1
v 2 3 -0.1
v 2 3 -0.9
v 2.6 2 0
v 2.6 2 -0.2
v 2.6 2 -0.8
v 2.6 2 -1
v 2.6 2.1 0
v 2.6 2.1 -0.2
v 2.6 2.1 -0.8
v 2.6 2.1 -1
v 3 2.1 0
v 3 2.1 -1
v 3 2.3 0
v 3 2.3 -0.3
v 3 2.3 -0.7
v 3 2.3 -1
v 3 2.4 -0.3
v 3 2.4 -0.7
v 3 2.5 0
v 3 2.5 -0.3
v 3 2.5 -0.7
v 3 2.5 -1
v 3 2.7 -0.3
v 3 2.7 -0.7
v 3 2.8 0
v 3 2.8 -1
v 0 2.1 0
v 0 2.3 0
v 0 2.4 0
v 0.1 2.3 0
v 0.1 2.4 0
v 0.1 2.5 0
v 0.4 2 0
v 0.4 2.1 0
v 0.4 2.2 0
v 0.5 2.2 0
v 0.5 2.3 0
v 0.6 2.3 0
v 0.6 2.4 0
v 0.9 2.3 0
v 0.9 2.4 0
v 1 2.2 0
v 1 2.3 0
v 1 2.5 0
v 1 2.7 0
v 1.1 2 0
v 1.1 2.1 0
v 1.1 2.2 0
v 1.1 2.5 0
v 1.1 2.7 0
v 1.1 2.8 0
v 1.2 2.1 0
v 1.2 2.7 0
v 1.2 2.8 0
v 1.2 2.9 0
v 1.3 2.7 0
v 1.3 2.8 0
v 1.4 2.5 0
v 1.4 2.8 0
v 1.4 2.9 0
v 1.4 3 0
v 1.7 2.1 0
v 1.7 2.5 0
v 1.7 2.9 0
v 1.7 3 0
v 1.8 2.1 0
v 1.8 2.4 0
v 1.8 2.5 0
v 1.8 2.9 0
v 1.9 2 0
v 1.9 2.1 0
v 1.9 2.2 0
v 2 2.2 0
v 2 2.3 0
v 2 2.5 0
v 2 2.8 0
v 2 2.9 0
v 2.1 2.3 0
v 2.1 2.4 0
v 2.1 2.5 0
v 2.1 2.8 0
v 2.4 2.3 0
v 2.4 2.4 0
v 2.5 2.2 0
v 2.5 2.3 0
v 2.6 2 0
v 2.6 2.1 0
v 2.6 2.2 0
v 2.7 2.5 0
v 2.7 2.8 0
v 2.8 2.5 0
v 2.8 2.8 0
v 2.9 2.3 0
v 2.9 2.4 0
v 2.9 2.5 0
v 3 2.1 0
v 3 2.3 0
v 3 2.5 0
v 3 2.8 0
v 0 2.4 -0.1
v 0 2.5 -0.1
v 0.1 2 -0.1
v 0.1 2.1 -0.1
v 0.1 2.4 -0.1
v 0.1 2.5 -0.1
v 0.4 2 -0.1
v 0.4 2.1 -0.1
v 1 2.7 -0.1
v 1 2.8 -0.1
v 1.1 2 -0.1
v 1.1 2.1 -0.1
v 1.1 2.7 -0.1
v 1.1 2.8 -0.1
v 1.1 2.9 -0.1
v 1.2 2.1 -0.1
v 1.2 2.8 -0.1
v 1.2 2.9 -0.1
v 1.2 3 -0.1
v 1.4 2.9 -0.1
v 1.4 3 -0.1
v 1.7 2.1 -0.1
v 1.7 2.9 -0.1
v 1.7 3 -0.1
v 1.8 2.1 -0.1
v 1.8 2.9 -0.1
v 1.9 2 -0.1
v 1.9 2.1 -0.1
v 2 2.9 -0.1
v 2 3 -0.1
v 2 2.5 -0.9
v 2 2.8 -0.9
v 2.1 2.5 -0.9
v 2.1 2.8 -0.9
v 2.7 2.5 -0.9
v 2.7 2.8 -0.9
v 2.8 2.5 -0.9
v 2.8 2.8 -0.9
v 2.9 2.5 -0.9
v 2.9 2.8 -0.9
v 2 2.5 -0.1
v 2 2.8 -0.1
v 2.1 2.5 -0.1
v 2.1 2.8 -0.1
v 2.7 2.5 -0.1
v 2.7 2.8 -0.1
v 2.8 2.5 -0.1
v 2.8 2.8 -0.1
v 2.9 2.5 -0.1
v 2.9 2.8 -0.1
v 0 2.4 -0.9
v 0 2.5 -0.9
v 0.1 2 -0.9
v 0.1 2.1 -0.9
v 0.1 2.4 -0.9
v 0.1 2.5 -0.9
v 0.4 2 -0.9
v 0.4 2.1 -0.9
v 1 2.7 -0.9
v 1 2.8 -0.9
v 1.1 2 -0.9
v 1.1 2.1 -0.9
v 1.1 2.7 -0.9
v 1.1 2.8 -0.9
v 1.1 2.9 -0.9
v 1.2 2.1 -0.9
v 1.2 2.8 -0.9
v 1.2 2.9 -0.9
v 1.2 3 -0.9
v 1.4 2.9 -0.9
v 1.4 3 -0.9
v 1.7 2.1 -0.9
v 1.7 2.9 -0.9
v 1.7 3 -0.9
v 1.8 2.1 -0.9
v 1.8 2.9 -0.9
v 1.9 2 -0.9
v 1.9 2.1 -0.9
v 2 2.9 -0.9
v 2 3 -0.9
v 0 2.1 -1
v 0 2.3 -1
v 0 2.4 -1
v 0.1 2.3 -1
v 0.1 2.4 -1
v 0.1 2.5 -1
v 0.4 2 -1
v 0.4 2.1 -1
v 0.4 2.2 -1
v 0.5 2.2 -1
v 0.5 2.3 -1
v 0.6 2.3 -1
v 0.6 2.4 -1
v 0.9 2.3 -1
v 0.9 2.4 -1
v 1 2.2 -1
v 1 2.3 -1
v 1 2.5 -1
v 1 2.7 -1
v 1.1 2 -1
v 1.1 2.1 -1
v 1.1 2.2 -1
v 1.1 2.5 -1
v 1.1 2.7 -1
v 1.1 2.8 -1
v 1.2 2.1 -1
v 1.2 2.7 -1
v 1.2 2.8 -1
v 1.2 2.9 -1
v 1.3 2.7 -1
v 1.3 2.8 -1
v 1.4 2.5 -1
v 1.4 2.8 -1
v 1.4 2.9 -1
v 1.4 3 -1
v 1.7 2.1 -1
v 1.7 2.5 -1
v 1.7 2.9 -1
v 1.7 3 -1
v 1.8 2.1 -1
v 1.8 2.4 -1
v 1.8 2.5 -1
v 1.8 2.9 -1
v 1.9 2 -1
v 1.9 2.1 -1
v 1.9 2.2 -1
v 2 2.2 -1
v 2 2.3 -1
v 2 2.5 -1
v 2 2.8 -1
v 2 2.9 -1
v 2.1 2.3 -1
v 2.1 2.4 -1
v 2.1 2.5 -1
v 2.1 2.8 -1
v 2.4 2.3 -1
v 2.4 2.4 -1
v 2.5 2.2 -1
v 2.5 2.3 -1
v 2.6 2 -1
v 2.6 2.1 -1
v 2.6 2.2 -1
v 2.7 2.5 -1
v 2.7 2.8 -1
v 2.8 2.5 -1
v 2.8 2.8 -1
v 2.9 2.3 -1
v 2.9 2.4 -1
v 2.9 2.5 -1
v 3 2.1 -1
v 3 2.3 -1
v 3 2.5 -1
v 3 2.8 -1
v 0.4 2 0
v 1.1 2 0
v 1.9 2 0
v 2.6 2 0
v 0.1 2 -0.1
v 0.4 2 -0.1
v 0.5 2 -0.1
v 1.1 2 -0.1
v 1.9 2 -0.1
v 2.5 2 -0.1
v 0.4 2 -0.2
v 0.5 2 -0.2
v 2.5 2 -0.2
v 2.6 2 -0.2
v 0.4 2 -0.8
v 0.5 2 -0.8
v 2.5 2 -0.8
v 2.6 2 -0.8
v 0.1 2 -0.9
v 0.4 2 -0.9
v 0.5 2 -0.9
v 1.1 2 -0.9
v 1.9 2 -0.9
v 2.5 2 -0.9
v 0.4 2 -1
v 1.1 2 -1
v 1.9 2 -1
v 2.6 2 -1
v 0 2.1 0
v 0.4 2.1 0
v 1.1 2.1 0
v 1.2 2.1 0
v 1.7 2.1 0
v 1.8 2.1 0
v 1.9 2.1 0
v 2.6 2.1 0
v 3 2.1 0
v 0.1 2.1 -0.1
v 0.4 2.1 -0.1
v 1.1 2.1 -0.1
v 1.2 2.1 -0.1
v 1.7 2.1 -0.1
v 1.8 2.1 -0.1
v 1.9 2.1 -0.1
v 2.6 2.1 -0.2
v 0 2.1 -0.4
v 0.1 2.1 -0.4
v 0 2.1 -0.6
v 0.1 2.1 -0.6
v 2.6 2.1 -0.8
v 0.1 2.1 -0.9
v 0.4 2.1 -0.9
v 1.1 2.1 -0.9
v 1.2 2.1 -0.9
v 1.7 2.1 -0.9
v 1.8 2.1 -0.9
v 1.9 2.1 -0.9
v 0 2.1 -1
v 0.4 2.1 -1
v 1.1 2.1 -1
v 1.2 2.1 -1
v 1.7 2.1 -1
v 1.8 2.1 -1
v 1.9 2.1 -1
v 2.6 2.1 -1
v 3 2.1 -1
v 0 2.4 0
v 0.1 2.4 0
v 0 2.4 -0.1
v 0.1 2.4 -0.1
v 0 2.4 -0.9
v 0.1 2.4 -0.9
v 0 2.4 -1
v 0.1 2.4 -1
v 0.1 2.5 0
v 1 2.5 0
v 0 2.5 -0.1
v 0.1 2.5 -0.1
v 2 2.5 -0.1
v 2.1 2.5 -0.1
v 2.7 2.5 -0.1
v 2.8 2.5 -0.1
v 2.9 2.5 -0.1
v 0.3 2.5 -0.2
v 1 2.5 -0.2
v 0 2.5 -0.3
v 0.1 2.5 -0.3
v 2.9 2.5 -0.3
v 0.2 2.5 -0.4
v 0.3 2.5 -0.4
v 0.2 2.5 -0.6
v 0.3 2.5 -0.6
v 0 2.5 -0.7
v 0.1 2.5 -0.7
v 2.9 2.5 -0.7
v 0.3 2.5 -0.8
v 1 2.5 -0.8
v 0 2.5 -0.9
v 0.1 2.5 -0.9
v 2 2.5 -0.9
v 2.1 2.5 -0.9
v 2.7 2.5 -0.9
v 2.8 2.5 -0.9
v 2.9 2.5 -0.9
v 0.1 2.5 -1
v 1 2.5 -1
v 1 2.7 0
v 1.1 2.7 0
v 1 2.7 -0.1
v 1.1 2.7 -0.1
v 1 2.7 -0.9
v 1.1 2.7 -0.9
v 1 2.7 -1
v 1.1 2.7 -1
v 1.1 2.8 0
v 1.2 2.8 0
v 2 2.8 0
v 2.1 2.8 0
v 2.7 2.8 0
v 2.8 2.8 0
v 3 2.8 0
v 1 2.8 -0.1
v 1.1 2.8 -0.1
v 1.2 2.8 -0.1
v 2 2.8 -0.1
v 2.1 2.8 -0.1
v 2.7 2.8 -0.1
v 2.8 2.8 -0.1
v 2.9 2.8 -0.1
v 1 2.8 -0.9
v 1.1 2.8 -0.9
v 1.2 2.8 -0.9
v 2 2.8 -0.9
v 2.1 2.8 -0.9
v 2.7 2.8 -0.9
v 2.8 2.8 -0.9
v 2.9 2.8 -0.9
v 1.1 2.8 -1
v 1.2 2.8 -1
v 2 2.8 -1
v 2.1 2.8 -1
v 2.7 2.8 -1
v 2.8 2.8 -1
v 3 2.8 -1
v 1.2 2.9 0
v 1.4 2.9 0
v 1.7 2.9 0
v 1.8 2.9 0
v 2 2.9 0
v 1.1 2.9 -0.1
v 1.2 2.9 -0.1
v 1.4 2.9 -0.1
v 1.7 2.9 -0.1
v 1.8 2.9 -0.1
v 2 2.9 -0.1
v 1.1 2.9 -0.9
v 1.2 2.9 -0.9
v 1.4 2.9 -0.9
v 1.7 2.9 -0.9
v 1.8 2.9 -0.9
v 2 2.9 -0.9
v 1.2 2.9 -1
v 1.4 2.9 -1
v 1.7 2.9 -1
v 1.8 2.9 -1
v 2 2.9 -1
v 1.4 3 0
v 1.7 3 0
v 1.2 3 -0.1
v 1.4 3 -0.1
v 1.7 3 -0.1
v 2 3 -0.1
v 1.4 3 -0.3
v 1.9 3 -0.3
v 1.4 3 -0.7
v 1.9 3 -0.7
v 1.2 3 -0.9
v 1.4 3 -0.9
v 1.7 3 -0.9
v 2 3 -0.9
v 1.4 3 -1
v 1.7 3 -1

# faces
f 5/1/1 2/1/1 1/1/1
f 6/1/1 2/1/1 5/1/1
f 7/1/1 4/1/1 3/1/1
f 8/1/1 4/1/1 7/1/1
f 9/3/1 6/3/1 5/3/1
f 10/3/1 6/3/1 9/3/1
f 11/1/1 2/1/1 6/1/1
f 11/6/1 3/6/1 2/6/1
f 12/1/1 7/1/1 3/1/1
f 12/6/1 3/6/1 11/6/1
f 13/3/1 8/3/1 7/3/1
f 14/3/1 8/3/1 13/3/1
f 15/3/1 6/3/1 10/3/1
f 16/1/1 11/1/1 6/1/1
f 16/3/1 6/3/1 15/3/1
f 16/1/1 12/1/1 11/1/1
f 17/3/1 13/3/1 7/3/1
f 17/1/1 12/1/1 16/1/1
f 17/1/1 7/1/1 12/1/1
f 18/3/1 13/3/1 17/3/1
f 21/1/1 20/1/1 19/1/1
f 22/1/1 20/1/1 21/1/1
f 23/1/1 20/1/1 22/1/1
f 24/1/1 20/1/1 23/1/1
f 29/1/1 26/1/1 25/1/1
f 30/1/1 26/1/1 29/1/1
f 31/1/1 28/1/1 27/1/1
f 32/1/1 28/1/1 31/1/1
f 37/7/1 34/7/1 33/7/1
f 38/7/1 34/7/1 37/7/1
f 39/7/1 36/7/1 35/7/1
f 40/7/1 36/7/1 39/7/1
f 45/5/1 42/5/1 41/5/1
f 45/5/1 44/5/1 43/5/1
f 45/5/1 43/5/1 42/5/1
f 46/5/1 44/5/1 45/5/1
f 47/5/1 44/5/1 46/5/1
f 48/5/1 44/5/1 47/5/1
f 49/5/1 47/5/1 46/5/1
f 50/5/1 47/5/1 49/5/1
f 55/5/1 52/5/1 51/5/1
f 56/5/1 52/5/1 55/5/1
f 57/5/1 54/5/1 53/5/1
f 58/5/1 54/5/1 57/5/1
f 59/5/1 57/5/1 56/5/1
f 60/5/1 57/5/1 59/5/1
f 65/2/1 62/2/1 61/2/1
f 66/2/1 62/2/1 65/2/1
f 67/2/1 64/2/1 63/2/1
f 68/2/1 64/2/1 67/2/1
f 69/1/1 67/1/1 66/1/1
f 70/1/1 67/1/1 69/1/1
f 75/1/1 72/1/1 71/1/1
f 76/1/1 72/1/1 75/1/1
f 77/1/1 74/1/1 73/1/1
f 78/1/1 74/1/1 77/1/1
f 83/7/1 80/7/1 79/7/1
f 84/7/1 80/7/1 83/7/1
f 85/7/1 82/7/1 81/7/1
f 86/7/1 82/7/1 85/7/1
f 91/1/1 88/1/1 87/1/1
f 91/6/1 89/6/1 88/6/1
f 92/1/1 90/1/1 89/1/1
f 92/6/1 89/6/1 91/6/1
f 93/1/1 91/1/1 87/1/1
f 93/1/1 92/1/1 91/1/1
f 94/1/1 90/1/1 92/1/1
f 94/1/1 92/1/1 93/1/1
f 95/7/2 96/7/2 99/7/2
f 99/7/2 96/7/2 100/7/2
f 97/7/2 98/7/2 101/7/2
f 101/7/2 98/7/2 102/7/2
f 103/1/2 104/1/2 107/1/2
f 107/1/2 104/1/2 108/1/2
f 105/1/2 106/1/2 109/1/2
f 109/1/2 106/1/2 110/1/2
f 111/1/2 112/1/2 114/1/2
f 114/1/2 112/1/2 115/1/2
f 113/1/2 114/1/2 117/1/2
f 115/1/2 116/1/2 117/1/2
f 114/1/2 115/1/2 117/1/2
f 117/1/2 116/1/2 118/1/2
f 118/1/2 116/1/2 119/1/2
f 119/1/2 116/1/2 120/1/2
f 118/1/2 119/1/2 121/1/2
f 121/1/2 119/1/2 122/1/2
f 123/7/2 124/7/2 127/7/2
f 124/1/2 125/1/2 128/1/2
f 127/7/2 124/7/2 128/7/2
f 125/7/2 126/7/2 129/7/2
f 128/1/2 125/1/2 129/1/2
f 129/7/2 126/7/2 130/7/2
f 131/1/2 132/1/2 133/1/2
f 133/1/2 132/1/2 134/1/2
f 134/1/2 132/1/2 135/1/2
f 135/1/2 132/1/2 136/1/2
f 133/4/2 134/4/2 137/4/2
f 134/1/2 135/1/2 137/1/2
f 135/4/2 136/4/2 138/4/2
f 137/1/2 135/1/2 138/1/2
f 133/4/2 137/4/2 139/4/2
f 137/6/2 138/6/2 140/6/2
f 139/4/2 137/4/2 140/4/2
f 138/4/2 136/4/2 141/4/2
f 140/6/2 138/6/2 141/6/2
f 141/4/2 136/4/2 142/4/2
f 139/1/2 140/1/2 143/1/2
f 140/6/2 141/6/2 143/6/2
f 141/1/2 142/1/2 144/1/2
f 143/6/2 141/6/2 144/6/2
f 139/1/2 143/1/2 145/1/2
f 143/1/2 144/1/2 145/1/2
f 144/1/2 142/1/2 146/1/2
f 145/1/2 144/1/2 146/1/2
f 150/1/3 148/1/3 147/1/3
f 150/3/3 149/3/3 148/3/3
f 151/3/3 149/3/3 150/3/3
f 154/1/3 150/1/3 147/1/3
f 154/1/3 152/1/3 151/1/3
f 154/1/3 151/1/3 150/1/3
f 155/1/3 152/1/3 154/1/3
f 156/7/3 154/7/3 153/7/3
f 156/1/3 152/1/3 155/1/3
f 156/7/3 155/7/3 154/7/3
f 157/1/3 152/1/3 156/1/3
f 158/7/3 157/7/3 156/7/3
f 158/1/3 152/1/3 157/1/3
f 159/1/3 152/1/3 158/1/3
f 160/7/3 158/7/3 156/7/3
f 160/7/3 159/7/3 158/7/3
f 161/1/3 152/1/3 159/1/3
f 161/7/3 159/7/3 160/7/3
f 162/7/3 156/7/3 153/7/3
f 162/7/3 160/7/3 156/7/3
f 163/1/3 161/1/3 160/1/3
f 163/7/3 160/7/3 162/7/3
f 164/1/3 152/1/3 161/1/3
f 164/1/3 161/1/3 163/1/3
f 166/7/3 162/7/3 153/7/3
f 167/7/3 162/7/3 166/7/3
f 168/1/3 163/1/3 162/1/3
f 168/7/3 162/7/3 167/7/3
f 168/1/3 164/1/3 163/1/3
f 169/5/3 165/5/3 164/5/3
f 169/1/3 164/1/3 168/1/3
f 170/5/3 165/5/3 169/5/3
f 172/2/3 168/2/3 167/2/3
f 172/2/3 170/2/3 169/2/3
f 172/2/3 169/2/3 168/2/3
f 173/5/3 171/5/3 170/5/3
f 173/2/3 170/2/3 172/2/3
f 174/5/3 171/5/3 173/5/3
f 176/1/3 173/1/3 172/1/3
f 176/2/3 175/2/3 174/2/3
f 176/2/3 174/2/3 173/2/3
f 177/2/3 175/2/3 176/2/3
f 178/1/3 176/1/3 172/1/3
f 178/1/3 177/1/3 176/1/3
f 179/2/3 175/2/3 177/2/3
f 179/1/3 177/1/3 178/1/3
f 180/2/3 175/2/3 179/2/3
f 182/1/3 178/1/3 172/1/3
f 183/5/3 179/5/3 178/5/3
f 183/1/3 178/1/3 182/1/3
f 183/5/3 180/5/3 179/5/3
f 184/1/3 181/1/3 180/1/3
f 184/5/3 180/5/3 183/5/3
f 185/1/3 181/1/3 184/1/3
f 186/2/3 183/2/3 182/2/3
f 186/2/3 184/2/3 183/2/3
f 187/2/3 184/2/3 186/2/3
f 188/2/3 184/2/3 187/2/3
f 189/2/3 184/2/3 188/2/3
f 191/1/3 187/1/3 186/1/3
f 192/1/3 187/1/3 191/1/3
f 193/7/3 191/7/3 190/7/3
f 193/1/3 187/1/3 192/1/3
f 193/7/3 192/7/3 191/7/3
f 194/1/3 187/1/3 193/1/3
f 195/2/3 188/2/3 187/2/3
f 195/1/3 189/1/3 188/1/3
f 196/1/3 189/1/3 195/1/3
f 197/1/3 189/1/3 196/1/3
f 198/1/3 187/1/3 194/1/3
f 198/7/3 194/7/3 193/7/3
f 199/2/3 195/2/3 187/2/3
f 199/1/3 187/1/3 198/1/3
f 200/7/3 196/7/3 195/7/3
f 200/2/3 195/2/3 199/2/3
f 201/7/3 196/7/3 200/7/3
f 202/7/3 199/7/3 198/7/3
f 202/7/3 198/7/3 193/7/3
f 203/2/3 200/2/3 199/2/3
f 203/7/3 199/7/3 202/7/3
f 204/7/3 193/7/3 190/7/3
f 204/7/3 202/7/3 193/7/3
f 205/1/3 203/1/3 202/1/3
f 205/7/3 202/7/3 204/7/3
f 206/7/3 204/7/3 190/7/3
f 207/7/3 204/7/3 206/7/3
f 208/1/3 205/1/3 204/1/3
f 208/7/3 204/7/3 207/7/3
f 209/2/3 200/2/3 203/2/3
f 209/1/3 201/1/3 200/1/3
f 210/1/3 201/1/3 209/1/3
f 211/2/3 209/2/3 203/2/3
f 211/2/3 210/2/3 209/2/3
f 212/2/3 210/2/3 211/2/3
f 213/1/3 205/1/3 208/1/3
f 213/1/3 208/1/3 207/1/3
f 213/1/3 203/1/3 205/1/3
f 214/2/3 211/2/3 203/2/3
f 214/1/3 203/1/3 213/1/3
f 215/1/3 212/1/3 211/1/3
f 215/2/3 211/2/3 214/2/3
f 216/1/3 213/1/3 207/1/3
f 217/4/3 214/4/3 213/4/3
f 217/1/3 213/1/3 216/1/3
f 217/4/3 215/4/3 214/4/3
f 218/1/3 212/1/3 215/1/3
f 218/4/3 215/4/3 217/4/3
f 219/1/3 212/1/3 218/1/3
f 224/3/3 221/3/3 220/3/3
f 225/3/3 221/3/3 224/3/3
f 226/1/3 223/1/3 222/1/3
f 227/1/3 223/1/3 226/1/3
f 232/5/3 229/5/3 228/5/3
f 233/5/3 229/5/3 232/5/3
f 235/1/3 231/1/3 230/1/3
f 236/5/3 234/5/3 233/5/3
f 237/5/3 234/5/3 236/5/3
f 239/1/3 238/1/3 237/1/3
f 240/1/3 238/1/3 239/1/3
f 241/1/3 235/1/3 230/1/3
f 244/1/3 241/1/3 230/1/3
f 245/1/3 243/1/3 242/1/3
f 246/1/3 244/1/3 230/1/3
f 247/1/3 244/1/3 246/1/3
f 248/1/3 243/1/3 245/1/3
f 249/1/3 243/1/3 248/1/3
f 252/7/3 251/7/3 250/7/3
f 253/7/3 251/7/3 252/7/3
f 254/1/3 253/1/3 252/1/3
f 255/1/3 253/1/3 254/1/3
f 256/2/3 255/2/3 254/2/3
f 257/2/3 255/2/3 256/2/3
f 258/1/3 257/1/3 256/1/3
f 259/1/3 257/1/3 258/1/3
f 260/7/4 261/7/4 262/7/4
f 262/7/4 261/7/4 263/7/4
f 262/1/4 263/1/4 264/1/4
f 264/1/4 263/1/4 265/1/4
f 264/2/4 265/2/4 266/2/4
f 266/2/4 265/2/4 267/2/4
f 266/1/4 267/1/4 268/1/4
f 268/1/4 267/1/4 269/1/4
f 270/3/4 271/3/4 274/3/4
f 274/3/4 271/3/4 275/3/4
f 272/1/4 273/1/4 276/1/4
f 276/1/4 273/1/4 277/1/4
f 278/5/4 279/5/4 282/5/4
f 282/5/4 279/5/4 283/5/4
f 280/1/4 281/1/4 285/1/4
f 283/5/4 284/5/4 286/5/4
f 286/5/4 284/5/4 287/5/4
f 287/1/4 288/1/4 289/1/4
f 289/1/4 288/1/4 290/1/4
f 280/1/4 285/1/4 291/1/4
f 280/1/4 291/1/4 294/1/4
f 292/1/4 293/1/4 295/1/4
f 280/1/4 294/1/4 296/1/4
f 296/1/4 294/1/4 297/1/4
f 295/1/4 293/1/4 298/1/4
f 298/1/4 293/1/4 299/1/4
f 300/1/4 301/1/4 303/1/4
f 301/3/4 302/3/4 303/3/4
f 303/3/4 302/3/4 304/3/4
f 300/1/4 303/1/4 307/1/4
f 304/1/4 305/1/4 307/1/4
f 303/1/4 304/1/4 307/1/4
f 307/1/4 305/1/4 308/1/4
f 306/7/4 307/7/4 309/7/4
f 308/1/4 305/1/4 309/1/4
f 307/7/4 308/7/4 309/7/4
f 309/1/4 305/1/4 310/1/4
f 309/7/4 310/7/4 311/7/4
f 310/1/4 305/1/4 311/1/4
f 311/1/4 305/1/4 312/1/4
f 309/7/4 311/7/4 313/7/4
f 311/7/4 312/7/4 313/7/4
f 312/1/4 305/1/4 314/1/4
f 313/7/4 312/7/4 314/7/4
f 306/7/4 309/7/4 315/7/4
f 309/7/4 313/7/4 315/7/4
f 313/1/4 314/1/4 316/1/4
f 315/7/4 313/7/4 316/7/4
f 314/1/4 305/1/4 317/1/4
f 316/1/4 314/1/4 317/1/4
f 306/7/4 315/7/4 319/7/4
f 319/7/4 315/7/4 320/7/4
f 315/1/4 316/1/4 321/1/4
f 320/7/4 315/7/4 321/7/4
f 316/1/4 317/1/4 321/1/4
f 317/5/4 318/5/4 322/5/4
f 321/1/4 317/1/4 322/1/4
f 322/5/4 318/5/4 323/5/4
f 320/2/4 321/2/4 325/2/4
f 322/2/4 323/2/4 325/2/4
f 321/2/4 322/2/4 325/2/4
f 323/5/4 324/5/4 326/5/4
f 325/2/4 323/2/4 326/2/4
f 326/5/4 324/5/4 327/5/4
f 325/1/4 326/1/4 329/1/4
f 327/2/4 328/2/4 329/2/4
f 326/2/4 327/2/4 329/2/4
f 329/2/4 328/2/4 330/2/4
f 325/1/4 329/1/4 331/1/4
f 329/1/4 330/1/4 331/1/4
f 330/2/4 328/2/4 332/2/4
f 331/1/4 330/1/4 332/1/4
f 332/2/4 328/2/4 333/2/4
f 325/1/4 331/1/4 335/1/4
f 331/5/4 332/5/4 336/5/4
f 335/1/4 331/1/4 336/1/4
f 332/5/4 333/5/4 336/5/4
f 333/1/4 334/1/4 337/1/4
f 336/5/4 333/5/4 337/5/4
f 337/1/4 334/1/4 338/1/4
f 335/2/4 336/2/4 339/2/4
f 336/2/4 337/2/4 339/2/4
f 339/2/4 337/2/4 340/2/4
f 340/2/4 337/2/4 341/2/4
f 341/2/4 337/2/4 342/2/4
f 339/1/4 340/1/4 344/1/4
f 344/1/4 340/1/4 345/1/4
f 343/7/4 344/7/4 346/7/4
f 345/1/4 340/1/4 346/1/4
f 344/7/4 345/7/4 346/7/4
f 346/1/4 340/1/4 347/1/4
f 340/2/4 341/2/4 348/2/4
f 341/1/4 342/1/4 348/1/4
f 348/1/4 342/1/4 349/1/4
f 349/1/4 342/1/4 350/1/4
f 347/1/4 340/1/4 351/1/4
f 346/7/4 347/7/4 351/7/4
f 340/2/4 348/2/4 352/2/4
f 351/1/4 340/1/4 352/1/4
f 348/7/4 349/7/4 353/7/4
f 352/2/4 348/2/4 353/2/4
f 353/7/4 349/7/4 354/7/4
f 351/7/4 352/7/4 355/7/4
f 346/7/4 351/7/4 355/7/4
f 352/2/4 353/2/4 356/2/4
f 355/7/4 352/7/4 356/7/4
f 343/7/4 346/7/4 357/7/4
f 346/7/4 355/7/4 357/7/4
f 355/1/4 356/1/4 358/1/4
f 357/7/4 355/7/4 358/7/4
f 343/7/4 357/7/4 359/7/4
f 359/7/4 357/7/4 360/7/4
f 357/1/4 358/1/4 361/1/4
f 360/7/4 357/7/4 361/7/4
f 356/2/4 353/2/4 362/2/4
f 353/1/4 354/1/4 362/1/4
f 362/1/4 354/1/4 363/1/4
f 356/2/4 362/2/4 364/2/4
f 362/2/4 363/2/4 364/2/4
f 364/2/4 363/2/4 365/2/4
f 361/1/4 358/1/4 366/1/4
f 360/1/4 361/1/4 366/1/4
f 358/1/4 356/1/4 366/1/4
f 356/2/4 364/2/4 367/2/4
f 366/1/4 356/1/4 367/1/4
f 364/1/4 365/1/4 368/1/4
f 367/2/4 364/2/4 368/2/4
f 360/1/4 366/1/4 369/1/4
f 366/4/4 367/4/4 370/4/4
f 369/1/4 366/1/4 370/1/4
f 367/4/4 368/4/4 370/4/4
f 368/1/4 365/1/4 371/1/4
f 370/4/4 368/4/4 371/4/4
f 371/1/4 365/1/4 372/1/4
f 378/7/5 374/7/5 373/7/5
f 379/7/5 374/7/5 378/7/5
f 380/7/5 374/7/5 379/7/5
f 381/7/5 376/7/5 375/7/5
f 382/7/5 376/7/5 381/7/5
f 383/1/5 378/1/5 377/1/5
f 383/7/5 379/7/5 378/7/5
f 384/1/5 380/1/5 379/1/5
f 384/7/5 379/7/5 383/7/5
f 384/1/5 382/1/5 381/1/5
f 384/1/5 381/1/5 380/1/5
f 385/7/5 376/7/5 382/7/5
f 385/1/5 382/1/5 384/1/5
f 386/7/5 376/7/5 385/7/5
f 387/1/5 383/1/5 377/1/5
f 387/1/5 384/1/5 383/1/5
f 387/1/5 386/1/5 385/1/5
f 387/1/5 385/1/5 384/1/5
f 388/1/5 386/1/5 387/1/5
f 389/1/5 386/1/5 388/1/5
f 390/1/5 386/1/5 389/1/5
f 391/1/5 387/1/5 377/1/5
f 392/7/5 388/7/5 387/7/5
f 392/1/5 387/1/5 391/1/5
f 393/1/5 389/1/5 388/1/5
f 393/7/5 388/7/5 392/7/5
f 394/1/5 389/1/5 393/1/5
f 395/1/5 389/1/5 394/1/5
f 396/7/5 390/7/5 389/7/5
f 396/1/5 389/1/5 395/1/5
f 397/7/5 393/7/5 392/7/5
f 397/7/5 394/7/5 393/7/5
f 398/7/5 394/7/5 397/7/5
f 399/7/5 396/7/5 395/7/5
f 400/7/5 390/7/5 396/7/5
f 400/7/5 396/7/5 399/7/5
f 410/1/5 402/1/5 401/1/5
f 411/1/5 402/1/5 410/1/5
f 412/2/5 404/2/5 403/2/5
f 413/1/5 405/1/5 404/1/5
f 413/2/5 404/2/5 412/2/5
f 414/2/5 406/2/5 405/2/5
f 414/1/5 405/1/5 413/1/5
f 415/1/5 407/1/5 406/1/5
f 415/2/5 406/2/5 414/2/5
f 416/1/5 407/1/5 415/1/5
f 417/1/5 409/1/5 408/1/5
f 418/1/5 410/1/5 401/1/5
f 419/1/5 410/1/5 418/1/5
f 420/6/5 419/6/5 418/6/5
f 421/6/5 419/6/5 420/6/5
f 422/1/5 409/1/5 417/1/5
f 423/1/5 421/1/5 420/1/5
f 430/1/5 423/1/5 420/1/5
f 430/1/5 424/1/5 423/1/5
f 431/1/5 424/1/5 430/1/5
f 432/2/5 426/2/5 425/2/5
f 433/1/5 427/1/5 426/1/5
f 433/2/5 426/2/5 432/2/5
f 434/2/5 428/2/5 427/2/5
f 434/1/5 427/1/5 433/1/5
f 435/1/5 429/1/5 428/1/5
f 435/2/5 428/2/5 434/2/5
f 436/1/5 429/1/5 435/1/5
f 437/1/5 409/1/5 422/1/5
f 438/1/5 409/1/5 437/1/5
f 439/3/6 440/3/6 441/3/6
f 441/3/6 440/3/6 442/3/6
f 443/3/6 444/3/6 445/3/6
f 445/3/6 444/3/6 446/3/6
f 447/1/6 448/1/6 450/1/6
f 450/1/6 448/1/6 456/1/6
f 456/1/6 448/1/6 457/1/6
f 449/3/6 450/3/6 458/3/6
f 450/1/6 456/1/6 459/1/6
f 458/3/6 450/3/6 459/3/6
f 454/1/6 455/1/6 460/1/6
f 451/1/6 452/1/6 460/1/6
f 452/1/6 453/1/6 460/1/6
f 453/1/6 454/1/6 460/1/6
f 459/1/6 456/1/6 461/1/6
f 458/1/6 459/1/6 461/1/6
f 456/2/6 457/2/6 462/2/6
f 461/1/6 456/1/6 462/1/6
f 458/1/6 461/1/6 463/1/6
f 461/2/6 462/2/6 463/2/6
f 462/2/6 457/2/6 464/2/6
f 463/2/6 462/2/6 464/2/6
f 458/1/6 463/1/6 465/1/6
f 463/1/6 464/1/6 465/1/6
f 465/1/6 464/1/6 466/1/6
f 451/1/6 460/1/6 467/1/6
f 466/1/6 464/1/6 468/1/6
f 464/2/6 457/2/6 468/2/6
f 468/2/6 457/2/6 469/2/6
f 465/3/6 466/3/6 470/3/6
f 466/1/6 468/1/6 471/1/6
f 470/3/6 466/3/6 471/3/6
f 468/1/6 469/1/6 471/1/6
f 451/1/6 467/1/6 472/1/6
f 472/1/6 467/1/6 473/1/6
f 473/1/6 467/1/6 474/1/6
f 474/1/6 467/1/6 475/1/6
f 475/1/6 467/1/6 476/1/6
f 471/1/6 469/1/6 477/1/6
f 477/1/6 469/1/6 478/1/6
f 479/5/6 480/5/6 481/5/6
f 481/5/6 480/5/6 482/5/6
f 483/5/6 484/5/6 485/5/6
f 485/5/6 484/5/6 486/5/6
f 487/5/6 488/5/6 495/5/6
f 495/5/6 488/5/6 496/5/6
f 489/7/6 490/7/6 497/7/6
f 490/1/6 491/1/6 498/1/6
f 497/7/6 490/7/6 498/7/6
f 491/2/6 492/2/6 499/2/6
f 498/1/6 491/1/6 499/1/6
f 492/1/6 493/1/6 500/1/6
f 499/2/6 492/2/6 500/2/6
f 500/1/6 493/1/6 501/1/6
f 494/5/6 495/5/6 502/5/6
f 502/5/6 495/5/6 503/5/6
f 501/1/6 493/1/6 509/1/6
f 503/5/6 504/5/6 510/5/6
f 510/5/6 504/5/6 511/5/6
f 505/7/6 506/7/6 512/7/6
f 506/1/6 507/1/6 513/1/6
f 512/7/6 506/7/6 513/7/6
f 507/2/6 508/2/6 514/2/6
f 513/1/6 507/1/6 514/1/6
f 508/1/6 509/1/6 515/1/6
f 514/2/6 508/2/6 515/2/6
f 509/1/6 493/1/6 516/1/6
f 515/1/6 509/1/6 516/1/6
f 517/2/6 518/2/6 523/2/6
f 523/2/6 518/2/6 524/2/6
f 519/2/6 520/2/6 525/2/6
f 520/1/6 521/1/6 526/1/6
f 525/2/6 520/2/6 526/2/6
f 526/1/6 521/1/6 527/1/6
f 522/5/6 523/5/6 528/5/6
f 528/5/6 523/5/6 529/5/6
f 529/2/6 530/2/6 534/2/6
f 534/2/6 530/2/6 535/2/6
f 531/2/6 532/2/6 536/2/6
f 532/1/6 533/1/6 537/1/6
f 536/2/6 532/2/6 537/2/6
f 537/1/6 533/1/6 538/1/6
f 539/1/6 540/1/6 542/1/6
f 542/1/6 540/1/6 543/1/6
f 541/1/6 542/1/6 545/1/6
f 543/1/6 544/1/6 545/1/6
f 542/1/6 543/1/6 545/1/6
f 545/1/6 544/1/6 546/1/6
f 541/1/6 545/1/6 547/1/6
f 545/2/6 546/2/6 547/2/6
f 546/1/6 544/1/6 548/1/6
f 547/2/6 546/2/6 548/2/6
f 541/1/6 547/1/6 549/1/6
f 547/1/6 548/1/6 549/1/6
f 549/1/6 548/1/6 550/1/6
f 550/1/6 548/1/6 551/1/6
f 548/1/6 544/1/6 552/1/6
f 551/1/6 548/1/6 552/1/6
f 550/1/6 551/1/6 553/1/6
f 553/1/6 551/1/6 554/1/6
