# MagicaVoxel @ Ephtracy

# group
o 

# material
mtllib car2.mtl
usemtl palette

# normals
vn -1 0 0
vn 1 0 0
vn 0 0 1
vn 0 0 -1
vn 0 -1 0
vn 0 1 0

# texcoords
vt 0.0214844 0.5
vt 0.681641 0.5
vt 0.712891 0.5
vt 0.716797 0.5
vt 0.841797 0.5
vt 0.982422 0.5
vt 0.986328 0.5
vt 0.994141 0.5

# verts
v 0 2 0
v 0 2 -0.1
v 0 2 -0.9
v 0 2 -1
v 0 2.1 -0.1
v 0 2.1 -0.4
v 0 2.1 -0.6
v 0 2.1 -0.9
v 0 2.3 0
v 0 2.3 -0.1
v 0 2.3 -0.3
v 0 2.3 -0.7
v 0 2.3 -0.9
v 0 2.3 -1
v 0 2.4 -0.2
v 0 2.4 -0.3
v 0 2.4 -0.4
v 0 2.4 -0.6
v 0 2.4 -0.7
v 0 2.4 -0.8
v 0 2.5 0
v 0 2.5 -0.1
v 0 2.5 -0.2
v 0 2.5 -0.8
v 0 2.5 -0.9
v 0 2.5 -1
v 0.3 2 -0.1
v 0.3 2 -0.9
v 0.3 2.1 -0.1
v 0.3 2.1 -0.9
v 0.5 2.5 0
v 0.5 2.5 -0.2
v 0.5 2.5 -0.8
v 0.5 2.5 -1
v 0.5 2.7 0
v 0.5 2.7 -0.1
v 0.5 2.7 -0.9
v 0.5 2.7 -1
v 0.5 2.8 -0.1
v 0.5 2.8 -0.9
v 0.6 2.7 0
v 0.6 2.7 -0.1
v 0.6 2.7 -0.9
v 0.6 2.7 -1
v 0.6 2.8 0
v 0.6 2.8 -0.1
v 0.6 2.8 -0.9
v 0.6 2.8 -1
v 0.6 2.9 -0.1
v 0.6 2.9 -0.9
v 0.7 2.8 0
v 0.7 2.8 -0.1
v 0.7 2.8 -0.9
v 0.7 2.8 -1
v 0.7 2.9 0
v 0.7 2.9 -0.1
v 0.7 2.9 -0.9
v 0.7 2.9 -1
v 0.7 3 -0.1
v 0.7 3 -0.9
v 0.9 2.9 0
v 0.9 2.9 -0.1
v 0.9 2.9 -0.9
v 0.9 2.9 -1
v 0.9 3 0
v 0.9 3 -0.1
v 0.9 3 -0.9
v 0.9 3 -1
v 1.4 2 0
v 1.4 2 -0.1
v 1.4 2 -0.9
v 1.4 2 -1
v 1.4 2.1 0
v 1.4 2.1 -0.1
v 1.4 2.1 -0.9
v 1.4 2.1 -1
v 1.9 2.5 -0.1
v 1.9 2.5 -0.3
v 1.9 2.5 -0.7
v 1.9 2.5 -0.9
v 1.9 2.6 -0.1
v 1.9 2.6 -0.3
v 1.9 2.6 -0.7
v 1.9 2.6 -0.9
v 0.6 2 0
v 0.6 2 -0.1
v 0.6 2 -0.9
v 0.6 2 -1
v 0.6 2.1 0
v 0.6 2.1 -0.1
v 0.6 2.1 -0.9
v 0.6 2.1 -1
v 1.2 2.9 0
v 1.2 2.9 -0.1
v 1.2 2.9 -0.9
v 1.2 2.9 -1
v 1.2 3 0
v 1.2 3 -0.1
v 1.2 3 -0.9
v 1.2 3 -1
v 1.5 2.5 -0.1
v 1.5 2.5 -0.9
v 1.5 2.8 0
v 1.5 2.8 -0.1
v 1.5 2.8 -0.9
v 1.5 2.8 -1
v 1.5 2.9 0
v 1.5 2.9 -0.1
v 1.5 2.9 -0.9
v 1.5 2.9 -1
v 1.5 3 -0.1
v 1.5 3 -0.9
v 1.8 2 -0.1
v 1.8 2 -0.9
v 1.8 2.1 -0.1
v 1.8 2.1 -0.9
v 2 2 0
v 2 2 -0.1
v 2 2 -0.9
v 2 2 -1
v 2 2.1 -0.1
v 2 2.1 -0.9
v 2 2.3 0
v 2 2.3 -0.1
v 2 2.3 -0.2
v 2 2.3 -0.3
v 2 2.3 -0.7
v 2 2.3 -0.8
v 2 2.3 -0.9
v 2 2.3 -1
v 2 2.4 0
v 2 2.4 -0.1
v 2 2.4 -0.9
v 2 2.4 -1
v 2 2.5 0
v 2 2.5 -0.1
v 2 2.5 -0.2
v 2 2.5 -0.3
v 2 2.5 -0.7
v 2 2.5 -0.8
v 2 2.5 -0.9
v 2 2.5 -1
v 2 2.6 -0.1
v 2 2.6 -0.3
v 2 2.6 -0.7
v 2 2.6 -0.9
v 2 2.8 0
v 2 2.8 -0.1
v 2 2.8 -0.9
v 2 2.8 -1
v 0 2 0
v 0 2.3 0
v 0 2.5 0
v 0.1 2.3 0
v 0.1 2.4 0
v 0.2 2 0
v 0.2 2.2 0
v 0.3 2 0
v 0.3 2.1 0
v 0.4 2.1 0
v 0.4 2.2 0
v 0.4 2.3 0
v 0.4 2.4 0
v 0.5 2.2 0
v 0.5 2.3 0
v 0.5 2.5 0
v 0.5 2.7 0
v 0.6 2 0
v 0.6 2.1 0
v 0.6 2.2 0
v 0.6 2.5 0
v 0.6 2.7 0
v 0.6 2.8 0
v 0.7 2.1 0
v 0.7 2.7 0
v 0.7 2.8 0
v 0.7 2.9 0
v 0.8 2.7 0
v 0.8 2.8 0
v 0.9 2.5 0
v 0.9 2.8 0
v 0.9 2.9 0
v 0.9 3 0
v 1.2 2.1 0
v 1.2 2.5 0
v 1.2 2.9 0
v 1.2 3 0
v 1.3 2.1 0
v 1.3 2.4 0
v 1.3 2.5 0
v 1.3 2.9 0
v 1.4 2 0
v 1.4 2.1 0
v 1.4 2.2 0
v 1.5 2.2 0
v 1.5 2.3 0
v 1.5 2.5 0
v 1.5 2.8 0
v 1.5 2.9 0
v 1.6 2.3 0
v 1.6 2.4 0
v 1.6 2.5 0
v 1.6 2.8 0
v 1.7 2 0
v 1.7 2.2 0
v 1.8 2 0
v 1.8 2.1 0
v 1.9 2.1 0
v 1.9 2.2 0
v 1.9 2.3 0
v 1.9 2.4 0
v 2 2 0
v 2 2.3 0
v 2 2.4 0
v 2 2.5 0
v 2 2.8 0
v 0.5 2.7 -0.1
v 0.5 2.8 -0.1
v 0.6 2 -0.1
v 0.6 2.1 -0.1
v 0.6 2.7 -0.1
v 0.6 2.8 -0.1
v 0.6 2.9 -0.1
v 0.7 2.1 -0.1
v 0.7 2.8 -0.1
v 0.7 2.9 -0.1
v 0.7 3 -0.1
v 0.9 2.9 -0.1
v 0.9 3 -0.1
v 1.2 2.1 -0.1
v 1.2 2.9 -0.1
v 1.2 3 -0.1
v 1.3 2.1 -0.1
v 1.3 2.9 -0.1
v 1.4 2 -0.1
v 1.4 2.1 -0.1
v 1.5 2.9 -0.1
v 1.5 3 -0.1
v 1.9 2.5 -0.7
v 1.9 2.6 -0.7
v 2 2.5 -0.7
v 2 2.6 -0.7
v 0 2 -0.9
v 0 2.1 -0.9
v 0.2 2 -0.9
v 0.2 2.1 -0.9
v 0.3 2 -0.9
v 0.3 2.1 -0.9
v 1.5 2.5 -0.9
v 1.5 2.8 -0.9
v 1.6 2.5 -0.9
v 1.6 2.8 -0.9
v 1.8 2 -0.9
v 1.8 2.1 -0.9
v 1.9 2.5 -0.9
v 1.9 2.6 -0.9
v 2 2 -0.9
v 2 2.1 -0.9
v 2 2.6 -0.9
v 2 2.8 -0.9
v 0 2 -0.1
v 0 2.1 -0.1
v 0.2 2 -0.1
v 0.2 2.1 -0.1
v 0.3 2 -0.1
v 0.3 2.1 -0.1
v 1.5 2.5 -0.1
v 1.5 2.8 -0.1
v 1.6 2.5 -0.1
v 1.6 2.8 -0.1
v 1.8 2 -0.1
v 1.8 2.1 -0.1
v 1.9 2.5 -0.1
v 1.9 2.6 -0.1
v 2 2 -0.1
v 2 2.1 -0.1
v 2 2.6 -0.1
v 2 2.8 -0.1
v 1.9 2.5 -0.3
v 1.9 2.6 -0.3
v 2 2.5 -0.3
v 2 2.6 -0.3
v 0.5 2.7 -0.9
v 0.5 2.8 -0.9
v 0.6 2 -0.9
v 0.6 2.1 -0.9
v 0.6 2.7 -0.9
v 0.6 2.8 -0.9
v 0.6 2.9 -0.9
v 0.7 2.1 -0.9
v 0.7 2.8 -0.9
v 0.7 2.9 -0.9
v 0.7 3 -0.9
v 0.9 2.9 -0.9
v 0.9 3 -0.9
v 1.2 2.1 -0.9
v 1.2 2.9 -0.9
v 1.2 3 -0.9
v 1.3 2.1 -0.9
v 1.3 2.9 -0.9
v 1.4 2 -0.9
v 1.4 2.1 -0.9
v 1.5 2.9 -0.9
v 1.5 3 -0.9
v 0 2 -1
v 0 2.3 -1
v 0 2.5 -1
v 0.1 2.3 -1
v 0.1 2.4 -1
v 0.2 2 -1
v 0.2 2.2 -1
v 0.3 2 -1
v 0.3 2.1 -1
v 0.4 2.1 -1
v 0.4 2.2 -1
v 0.4 2.3 -1
v 0.4 2.4 -1
v 0.5 2.2 -1
v 0.5 2.3 -1
v 0.5 2.5 -1
v 0.5 2.7 -1
v 0.6 2 -1
v 0.6 2.1 -1
v 0.6 2.2 -1
v 0.6 2.5 -1
v 0.6 2.7 -1
v 0.6 2.8 -1
v 0.7 2.1 -1
v 0.7 2.7 -1
v 0.7 2.8 -1
v 0.7 2.9 -1
v 0.8 2.7 -1
v 0.8 2.8 -1
v 0.9 2.5 -1
v 0.9 2.8 -1
v 0.9 2.9 -1
v 0.9 3 -1
v 1.2 2.1 -1
v 1.2 2.5 -1
v 1.2 2.9 -1
v 1.2 3 -1
v 1.3 2.1 -1
v 1.3 2.4 -1
v 1.3 2.5 -1
v 1.3 2.9 -1
v 1.4 2 -1
v 1.4 2.1 -1
v 1.4 2.2 -1
v 1.5 2.2 -1
v 1.5 2.3 -1
v 1.5 2.5 -1
v 1.5 2.8 -1
v 1.5 2.9 -1
v 1.6 2.3 -1
v 1.6 2.4 -1
v 1.6 2.5 -1
v 1.6 2.8 -1
v 1.7 2 -1
v 1.7 2.2 -1
v 1.8 2 -1
v 1.8 2.1 -1
v 1.9 2.1 -1
v 1.9 2.2 -1
v 1.9 2.3 -1
v 1.9 2.4 -1
v 2 2 -1
v 2 2.3 -1
v 2 2.4 -1
v 2 2.5 -1
v 2 2.8 -1
v 0 2 0
v 0.2 2 0
v 0.3 2 0
v 0.6 2 0
v 1.4 2 0
v 1.7 2 0
v 1.8 2 0
v 2 2 0
v 0 2 -0.1
v 0.2 2 -0.1
v 0.3 2 -0.1
v 0.6 2 -0.1
v 1.4 2 -0.1
v 1.7 2 -0.1
v 1.8 2 -0.1
v 2 2 -0.1
v 0 2 -0.9
v 0.2 2 -0.9
v 0.3 2 -0.9
v 0.6 2 -0.9
v 1.4 2 -0.9
v 1.7 2 -0.9
v 1.8 2 -0.9
v 2 2 -0.9
v 0 2 -1
v 0.2 2 -1
v 0.3 2 -1
v 0.6 2 -1
v 1.4 2 -1
v 1.7 2 -1
v 1.8 2 -1
v 2 2 -1
v 0.6 2.1 0
v 0.7 2.1 0
v 1.2 2.1 0
v 1.3 2.1 0
v 1.4 2.1 0
v 0 2.1 -0.1
v 0.2 2.1 -0.1
v 0.3 2.1 -0.1
v 0.6 2.1 -0.1
v 0.7 2.1 -0.1
v 1.2 2.1 -0.1
v 1.3 2.1 -0.1
v 1.4 2.1 -0.1
v 1.8 2.1 -0.1
v 2 2.1 -0.1
v 0 2.1 -0.4
v 0.1 2.1 -0.4
v 0 2.1 -0.6
v 0.1 2.1 -0.6
v 0 2.1 -0.9
v 0.2 2.1 -0.9
v 0.3 2.1 -0.9
v 0.6 2.1 -0.9
v 0.7 2.1 -0.9
v 1.2 2.1 -0.9
v 1.3 2.1 -0.9
v 1.4 2.1 -0.9
v 1.8 2.1 -0.9
v 2 2.1 -0.9
v 0.6 2.1 -1
v 0.7 2.1 -1
v 1.2 2.1 -1
v 1.3 2.1 -1
v 1.4 2.1 -1
v 0 2.5 0
v 0.5 2.5 0
v 0 2.5 -0.1
v 0.1 2.5 -0.1
v 1.5 2.5 -0.1
v 1.6 2.5 -0.1
v 1.9 2.5 -0.1
v 0 2.5 -0.2
v 0.1 2.5 -0.2
v 0.5 2.5 -0.2
v 1.9 2.5 -0.3
v 2 2.5 -0.3
v 1.9 2.5 -0.7
v 2 2.5 -0.7
v 0 2.5 -0.8
v 0.1 2.5 -0.8
v 0.5 2.5 -0.8
v 0 2.5 -0.9
v 0.1 2.5 -0.9
v 1.5 2.5 -0.9
v 1.6 2.5 -0.9
v 1.9 2.5 -0.9
v 0 2.5 -1
v 0.5 2.5 -1
v 1.9 2.6 -0.1
v 2 2.6 -0.1
v 1.9 2.6 -0.3
v 2 2.6 -0.3
v 1.9 2.6 -0.7
v 2 2.6 -0.7
v 1.9 2.6 -0.9
v 2 2.6 -0.9
v 0.5 2.7 0
v 0.6 2.7 0
v 0.5 2.7 -0.1
v 0.6 2.7 -0.1
v 0.5 2.7 -0.9
v 0.6 2.7 -0.9
v 0.5 2.7 -1
v 0.6 2.7 -1
v 0.6 2.8 0
v 0.7 2.8 0
v 1.5 2.8 0
v 1.6 2.8 0
v 2 2.8 0
v 0.5 2.8 -0.1
v 0.6 2.8 -0.1
v 0.7 2.8 -0.1
v 1.5 2.8 -0.1
v 1.6 2.8 -0.1
v 2 2.8 -0.1
v 0.5 2.8 -0.9
v 0.6 2.8 -0.9
v 0.7 2.8 -0.9
v 1.5 2.8 -0.9
v 1.6 2.8 -0.9
v 2 2.8 -0.9
v 0.6 2.8 -1
v 0.7 2.8 -1
v 1.5 2.8 -1
v 1.6 2.8 -1
v 2 2.8 -1
v 0.7 2.9 0
v 0.9 2.9 0
v 1.2 2.9 0
v 1.3 2.9 0
v 1.5 2.9 0
v 0.6 2.9 -0.1
v 0.7 2.9 -0.1
v 0.9 2.9 -0.1
v 1.2 2.9 -0.1
v 1.3 2.9 -0.1
v 1.5 2.9 -0.1
v 0.6 2.9 -0.9
v 0.7 2.9 -0.9
v 0.9 2.9 -0.9
v 1.2 2.9 -0.9
v 1.3 2.9 -0.9
v 1.5 2.9 -0.9
v 0.7 2.9 -1
v 0.9 2.9 -1
v 1.2 2.9 -1
v 1.3 2.9 -1
v 1.5 2.9 -1
v 0.9 3 0
v 1.2 3 0
v 0.7 3 -0.1
v 0.9 3 -0.1
v 1.2 3 -0.1
v 1.5 3 -0.1
v 0.9 3 -0.3
v 1.4 3 -0.3
v 0.9 3 -0.7
v 1.4 3 -0.7
v 0.7 3 -0.9
v 0.9 3 -0.9
v 1.2 3 -0.9
v 1.5 3 -0.9
v 0.9 3 -1
v 1.2 3 -1

# faces
f 5/7/1 2/7/1 1/7/1
f 8/7/1 4/7/1 3/7/1
f 9/7/1 5/7/1 1/7/1
f 10/3/1 6/3/1 5/3/1
f 10/7/1 5/7/1 9/7/1
f 11/3/1 6/3/1 10/3/1
f 12/3/1 8/3/1 7/3/1
f 13/7/1 4/7/1 8/7/1
f 13/3/1 8/3/1 12/3/1
f 14/7/1 4/7/1 13/7/1
f 15/1/1 11/1/1 10/1/1
f 16/3/1 6/3/1 11/3/1
f 16/1/1 11/1/1 15/1/1
f 17/6/1 7/6/1 6/6/1
f 17/3/1 6/3/1 16/3/1
f 18/3/1 12/3/1 7/3/1
f 18/6/1 7/6/1 17/6/1
f 19/1/1 13/1/1 12/1/1
f 19/3/1 12/3/1 18/3/1
f 20/1/1 13/1/1 19/1/1
f 21/3/1 10/3/1 9/3/1
f 22/1/1 15/1/1 10/1/1
f 22/3/1 10/3/1 21/3/1
f 23/4/1 16/4/1 15/4/1
f 23/1/1 15/1/1 22/1/1
f 23/4/1 17/4/1 16/4/1
f 23/4/1 20/4/1 19/4/1
f 23/4/1 19/4/1 18/4/1
f 23/4/1 18/4/1 17/4/1
f 24/1/1 13/1/1 20/1/1
f 24/4/1 20/4/1 23/4/1
f 25/3/1 14/3/1 13/3/1
f 25/1/1 13/1/1 24/1/1
f 26/3/1 14/3/1 25/3/1
f 29/3/1 28/3/1 27/3/1
f 30/3/1 28/3/1 29/3/1
f 35/2/1 32/2/1 31/2/1
f 35/2/1 34/2/1 33/2/1
f 35/2/1 33/2/1 32/2/1
f 36/2/1 34/2/1 35/2/1
f 37/2/1 34/2/1 36/2/1
f 38/2/1 34/2/1 37/2/1
f 39/2/1 37/2/1 36/2/1
f 40/2/1 37/2/1 39/2/1
f 45/2/1 42/2/1 41/2/1
f 46/2/1 42/2/1 45/2/1
f 47/2/1 44/2/1 43/2/1
f 48/2/1 44/2/1 47/2/1
f 49/2/1 47/2/1 46/2/1
f 50/2/1 47/2/1 49/2/1
f 55/4/1 52/4/1 51/4/1
f 56/4/1 52/4/1 55/4/1
f 57/4/1 54/4/1 53/4/1
f 58/4/1 54/4/1 57/4/1
f 59/3/1 57/3/1 56/3/1
f 60/3/1 57/3/1 59/3/1
f 65/3/1 62/3/1 61/3/1
f 66/3/1 62/3/1 65/3/1
f 67/3/1 64/3/1 63/3/1
f 68/3/1 64/3/1 67/3/1
f 73/7/1 70/7/1 69/7/1
f 74/7/1 70/7/1 73/7/1
f 75/7/1 72/7/1 71/7/1
f 76/7/1 72/7/1 75/7/1
f 81/3/1 78/3/1 77/3/1
f 82/3/1 78/3/1 81/3/1
f 83/3/1 80/3/1 79/3/1
f 84/3/1 80/3/1 83/3/1
f 85/7/2 86/7/2 89/7/2
f 89/7/2 86/7/2 90/7/2
f 87/7/2 88/7/2 91/7/2
f 91/7/2 88/7/2 92/7/2
f 93/3/2 94/3/2 97/3/2
f 97/3/2 94/3/2 98/3/2
f 95/3/2 96/3/2 99/3/2
f 99/3/2 96/3/2 100/3/2
f 101/3/2 102/3/2 104/3/2
f 104/3/2 102/3/2 105/3/2
f 103/3/2 104/3/2 107/3/2
f 105/3/2 106/3/2 107/3/2
f 104/3/2 105/3/2 107/3/2
f 107/3/2 106/3/2 108/3/2
f 108/3/2 106/3/2 109/3/2
f 109/3/2 106/3/2 110/3/2
f 108/3/2 109/3/2 111/3/2
f 111/3/2 109/3/2 112/3/2
f 113/3/2 114/3/2 115/3/2
f 115/3/2 114/3/2 116/3/2
f 117/7/2 118/7/2 121/7/2
f 119/7/2 120/7/2 122/7/2
f 117/7/2 121/7/2 123/7/2
f 121/3/2 122/3/2 124/3/2
f 123/7/2 121/7/2 124/7/2
f 124/3/2 122/3/2 125/3/2
f 125/3/2 122/3/2 126/3/2
f 126/3/2 122/3/2 127/3/2
f 127/3/2 122/3/2 128/3/2
f 122/7/2 120/7/2 129/7/2
f 128/3/2 122/3/2 129/3/2
f 129/7/2 120/7/2 130/7/2
f 123/3/2 124/3/2 131/3/2
f 124/5/2 125/5/2 132/5/2
f 131/3/2 124/3/2 132/3/2
f 128/5/2 129/5/2 133/5/2
f 129/3/2 130/3/2 133/3/2
f 133/3/2 130/3/2 134/3/2
f 131/4/2 132/4/2 135/4/2
f 132/5/2 125/5/2 136/5/2
f 135/4/2 132/4/2 136/4/2
f 125/1/2 126/1/2 137/1/2
f 136/5/2 125/5/2 137/5/2
f 126/3/2 127/3/2 138/3/2
f 137/1/2 126/1/2 138/1/2
f 127/1/2 128/1/2 139/1/2
f 138/3/2 127/3/2 139/3/2
f 128/5/2 133/5/2 140/5/2
f 139/1/2 128/1/2 140/1/2
f 133/4/2 134/4/2 141/4/2
f 140/5/2 133/5/2 141/5/2
f 141/4/2 134/4/2 142/4/2
f 137/3/2 138/3/2 143/3/2
f 135/3/2 136/3/2 143/3/2
f 136/3/2 137/3/2 143/3/2
f 143/3/2 138/3/2 144/3/2
f 141/3/2 142/3/2 145/3/2
f 140/3/2 141/3/2 145/3/2
f 139/3/2 140/3/2 145/3/2
f 145/3/2 142/3/2 146/3/2
f 135/3/2 143/3/2 147/3/2
f 147/3/2 143/3/2 148/3/2
f 146/3/2 142/3/2 149/3/2
f 149/3/2 142/3/2 150/3/2
f 154/7/3 152/7/3 151/7/3
f 154/3/3 153/3/3 152/3/3
f 155/3/3 153/3/3 154/3/3
f 156/7/3 154/7/3 151/7/3
f 156/7/3 155/7/3 154/7/3
f 157/7/3 155/7/3 156/7/3
f 158/8/3 157/8/3 156/8/3
f 159/8/3 157/8/3 158/8/3
f 160/7/3 159/7/3 158/7/3
f 160/8/3 157/8/3 159/8/3
f 161/7/3 155/7/3 157/7/3
f 161/8/3 157/8/3 160/8/3
f 162/7/3 155/7/3 161/7/3
f 163/3/3 153/3/3 155/3/3
f 163/7/3 155/7/3 162/7/3
f 164/7/3 162/7/3 161/7/3
f 164/7/3 161/7/3 160/7/3
f 165/3/3 163/3/3 162/3/3
f 165/7/3 162/7/3 164/7/3
f 166/3/3 153/3/3 163/3/3
f 166/3/3 163/3/3 165/3/3
f 168/7/3 160/7/3 158/7/3
f 168/7/3 164/7/3 160/7/3
f 169/7/3 164/7/3 168/7/3
f 170/3/3 165/3/3 164/3/3
f 170/7/3 164/7/3 169/7/3
f 170/3/3 166/3/3 165/3/3
f 171/2/3 167/2/3 166/2/3
f 171/3/3 166/3/3 170/3/3
f 172/2/3 167/2/3 171/2/3
f 174/4/3 170/4/3 169/4/3
f 174/4/3 172/4/3 171/4/3
f 174/4/3 171/4/3 170/4/3
f 175/2/3 173/2/3 172/2/3
f 175/4/3 172/4/3 174/4/3
f 176/2/3 173/2/3 175/2/3
f 178/3/3 175/3/3 174/3/3
f 178/4/3 177/4/3 176/4/3
f 178/4/3 176/4/3 175/4/3
f 179/4/3 177/4/3 178/4/3
f 180/3/3 178/3/3 174/3/3
f 180/3/3 179/3/3 178/3/3
f 181/4/3 177/4/3 179/4/3
f 181/3/3 179/3/3 180/3/3
f 182/4/3 177/4/3 181/4/3
f 184/3/3 180/3/3 174/3/3
f 185/2/3 181/2/3 180/2/3
f 185/3/3 180/3/3 184/3/3
f 185/2/3 182/2/3 181/2/3
f 186/3/3 183/3/3 182/3/3
f 186/2/3 182/2/3 185/2/3
f 187/3/3 183/3/3 186/3/3
f 188/4/3 185/4/3 184/4/3
f 188/4/3 186/4/3 185/4/3
f 189/4/3 186/4/3 188/4/3
f 190/4/3 186/4/3 189/4/3
f 191/4/3 186/4/3 190/4/3
f 193/3/3 189/3/3 188/3/3
f 194/3/3 189/3/3 193/3/3
f 195/7/3 193/7/3 192/7/3
f 195/3/3 189/3/3 194/3/3
f 195/7/3 194/7/3 193/7/3
f 196/3/3 189/3/3 195/3/3
f 197/4/3 190/4/3 189/4/3
f 197/3/3 191/3/3 190/3/3
f 198/3/3 191/3/3 197/3/3
f 199/3/3 191/3/3 198/3/3
f 200/3/3 189/3/3 196/3/3
f 200/7/3 196/7/3 195/7/3
f 201/4/3 197/4/3 189/4/3
f 201/3/3 189/3/3 200/3/3
f 202/7/3 198/7/3 197/7/3
f 202/4/3 197/4/3 201/4/3
f 203/7/3 198/7/3 202/7/3
f 204/7/3 201/7/3 200/7/3
f 204/7/3 195/7/3 192/7/3
f 204/7/3 200/7/3 195/7/3
f 205/7/3 201/7/3 204/7/3
f 206/8/3 205/8/3 204/8/3
f 207/8/3 205/8/3 206/8/3
f 208/7/3 207/7/3 206/7/3
f 208/8/3 205/8/3 207/8/3
f 209/7/3 201/7/3 205/7/3
f 209/8/3 205/8/3 208/8/3
f 210/7/3 201/7/3 209/7/3
f 211/4/3 202/4/3 201/4/3
f 211/7/3 201/7/3 210/7/3
f 212/7/3 210/7/3 209/7/3
f 212/7/3 208/7/3 206/7/3
f 212/7/3 209/7/3 208/7/3
f 213/3/3 211/3/3 210/3/3
f 213/7/3 210/7/3 212/7/3
f 214/4/3 202/4/3 211/4/3
f 214/3/3 211/3/3 213/3/3
f 215/3/3 203/3/3 202/3/3
f 215/4/3 202/4/3 214/4/3
f 216/3/3 203/3/3 215/3/3
f 221/2/3 218/2/3 217/2/3
f 222/2/3 218/2/3 221/2/3
f 224/3/3 220/3/3 219/3/3
f 225/2/3 223/2/3 222/2/3
f 226/2/3 223/2/3 225/2/3
f 228/3/3 227/3/3 226/3/3
f 229/3/3 227/3/3 228/3/3
f 230/3/3 224/3/3 219/3/3
f 233/3/3 230/3/3 219/3/3
f 234/3/3 232/3/3 231/3/3
f 235/3/3 233/3/3 219/3/3
f 236/3/3 233/3/3 235/3/3
f 237/3/3 232/3/3 234/3/3
f 238/3/3 232/3/3 237/3/3
f 241/3/3 240/3/3 239/3/3
f 242/3/3 240/3/3 241/3/3
f 245/7/3 244/7/3 243/7/3
f 246/7/3 244/7/3 245/7/3
f 247/8/3 246/8/3 245/8/3
f 248/8/3 246/8/3 247/8/3
f 251/7/3 250/7/3 249/7/3
f 252/7/3 250/7/3 251/7/3
f 255/3/3 252/3/3 251/3/3
f 256/3/3 252/3/3 255/3/3
f 257/7/3 254/7/3 253/7/3
f 258/7/3 254/7/3 257/7/3
f 259/3/3 252/3/3 256/3/3
f 260/3/3 252/3/3 259/3/3
f 261/7/4 262/7/4 263/7/4
f 263/7/4 262/7/4 264/7/4
f 263/8/4 264/8/4 265/8/4
f 265/8/4 264/8/4 266/8/4
f 267/7/4 268/7/4 269/7/4
f 269/7/4 268/7/4 270/7/4
f 269/3/4 270/3/4 273/3/4
f 273/3/4 270/3/4 274/3/4
f 271/7/4 272/7/4 275/7/4
f 275/7/4 272/7/4 276/7/4
f 274/3/4 270/3/4 277/3/4
f 277/3/4 270/3/4 278/3/4
f 279/3/4 280/3/4 281/3/4
f 281/3/4 280/3/4 282/3/4
f 283/2/4 284/2/4 287/2/4
f 287/2/4 284/2/4 288/2/4
f 285/3/4 286/3/4 290/3/4
f 288/2/4 289/2/4 291/2/4
f 291/2/4 289/2/4 292/2/4
f 292/3/4 293/3/4 294/3/4
f 294/3/4 293/3/4 295/3/4
f 285/3/4 290/3/4 296/3/4
f 285/3/4 296/3/4 299/3/4
f 297/3/4 298/3/4 300/3/4
f 285/3/4 299/3/4 301/3/4
f 301/3/4 299/3/4 302/3/4
f 300/3/4 298/3/4 303/3/4
f 303/3/4 298/3/4 304/3/4
f 305/7/4 306/7/4 308/7/4
f 306/3/4 307/3/4 308/3/4
f 308/3/4 307/3/4 309/3/4
f 305/7/4 308/7/4 310/7/4
f 308/7/4 309/7/4 310/7/4
f 310/7/4 309/7/4 311/7/4
f 310/8/4 311/8/4 312/8/4
f 312/8/4 311/8/4 313/8/4
f 312/7/4 313/7/4 314/7/4
f 313/8/4 311/8/4 314/8/4
f 311/7/4 309/7/4 315/7/4
f 314/8/4 311/8/4 315/8/4
f 315/7/4 309/7/4 316/7/4
f 309/3/4 307/3/4 317/3/4
f 316/7/4 309/7/4 317/7/4
f 315/7/4 316/7/4 318/7/4
f 314/7/4 315/7/4 318/7/4
f 316/3/4 317/3/4 319/3/4
f 318/7/4 316/7/4 319/7/4
f 317/3/4 307/3/4 320/3/4
f 319/3/4 317/3/4 320/3/4
f 312/7/4 314/7/4 322/7/4
f 314/7/4 318/7/4 322/7/4
f 322/7/4 318/7/4 323/7/4
f 318/3/4 319/3/4 324/3/4
f 323/7/4 318/7/4 324/7/4
f 319/3/4 320/3/4 324/3/4
f 320/2/4 321/2/4 325/2/4
f 324/3/4 320/3/4 325/3/4
f 325/2/4 321/2/4 326/2/4
f 323/4/4 324/4/4 328/4/4
f 325/4/4 326/4/4 328/4/4
f 324/4/4 325/4/4 328/4/4
f 326/2/4 327/2/4 329/2/4
f 328/4/4 326/4/4 329/4/4
f 329/2/4 327/2/4 330/2/4
f 328/3/4 329/3/4 332/3/4
f 330/4/4 331/4/4 332/4/4
f 329/4/4 330/4/4 332/4/4
f 332/4/4 331/4/4 333/4/4
f 328/3/4 332/3/4 334/3/4
f 332/3/4 333/3/4 334/3/4
f 333/4/4 331/4/4 335/4/4
f 334/3/4 333/3/4 335/3/4
f 335/4/4 331/4/4 336/4/4
f 328/3/4 334/3/4 338/3/4
f 334/2/4 335/2/4 339/2/4
f 338/3/4 334/3/4 339/3/4
f 335/2/4 336/2/4 339/2/4
f 336/3/4 337/3/4 340/3/4
f 339/2/4 336/2/4 340/2/4
f 340/3/4 337/3/4 341/3/4
f 338/4/4 339/4/4 342/4/4
f 339/4/4 340/4/4 342/4/4
f 342/4/4 340/4/4 343/4/4
f 343/4/4 340/4/4 344/4/4
f 344/4/4 340/4/4 345/4/4
f 342/3/4 343/3/4 347/3/4
f 347/3/4 343/3/4 348/3/4
f 346/7/4 347/7/4 349/7/4
f 348/3/4 343/3/4 349/3/4
f 347/7/4 348/7/4 349/7/4
f 349/3/4 343/3/4 350/3/4
f 343/4/4 344/4/4 351/4/4
f 344/3/4 345/3/4 351/3/4
f 351/3/4 345/3/4 352/3/4
f 352/3/4 345/3/4 353/3/4
f 350/3/4 343/3/4 354/3/4
f 349/7/4 350/7/4 354/7/4
f 343/4/4 351/4/4 355/4/4
f 354/3/4 343/3/4 355/3/4
f 351/7/4 352/7/4 356/7/4
f 355/4/4 351/4/4 356/4/4
f 356/7/4 352/7/4 357/7/4
f 354/7/4 355/7/4 358/7/4
f 346/7/4 349/7/4 358/7/4
f 349/7/4 354/7/4 358/7/4
f 358/7/4 355/7/4 359/7/4
f 358/8/4 359/8/4 360/8/4
f 360/8/4 359/8/4 361/8/4
f 360/7/4 361/7/4 362/7/4
f 361/8/4 359/8/4 362/8/4
f 359/7/4 355/7/4 363/7/4
f 362/8/4 359/8/4 363/8/4
f 363/7/4 355/7/4 364/7/4
f 355/4/4 356/4/4 365/4/4
f 364/7/4 355/7/4 365/7/4
f 363/7/4 364/7/4 366/7/4
f 360/7/4 362/7/4 366/7/4
f 362/7/4 363/7/4 366/7/4
f 364/3/4 365/3/4 367/3/4
f 366/7/4 364/7/4 367/7/4
f 365/4/4 356/4/4 368/4/4
f 367/3/4 365/3/4 368/3/4
f 356/3/4 357/3/4 369/3/4
f 368/4/4 356/4/4 369/4/4
f 369/3/4 357/3/4 370/3/4
f 379/7/5 372/7/5 371/7/5
f 380/8/5 373/8/5 372/8/5
f 380/7/5 372/7/5 379/7/5
f 381/7/5 374/7/5 373/7/5
f 381/8/5 373/8/5 380/8/5
f 382/7/5 374/7/5 381/7/5
f 383/7/5 376/7/5 375/7/5
f 384/8/5 377/8/5 376/8/5
f 384/7/5 376/7/5 383/7/5
f 385/7/5 378/7/5 377/7/5
f 385/8/5 377/8/5 384/8/5
f 386/7/5 378/7/5 385/7/5
f 389/3/5 384/3/5 383/3/5
f 389/3/5 382/3/5 381/3/5
f 389/3/5 383/3/5 382/3/5
f 389/3/5 385/3/5 384/3/5
f 390/3/5 385/3/5 389/3/5
f 391/3/5 385/3/5 390/3/5
f 392/3/5 385/3/5 391/3/5
f 393/3/5 385/3/5 392/3/5
f 395/7/5 388/7/5 387/7/5
f 396/8/5 389/8/5 388/8/5
f 396/7/5 388/7/5 395/7/5
f 397/7/5 390/7/5 389/7/5
f 397/8/5 389/8/5 396/8/5
f 398/7/5 390/7/5 397/7/5
f 399/7/5 392/7/5 391/7/5
f 400/8/5 393/8/5 392/8/5
f 400/7/5 392/7/5 399/7/5
f 401/7/5 394/7/5 393/7/5
f 401/8/5 393/8/5 400/8/5
f 402/7/5 394/7/5 401/7/5
f 411/4/5 404/4/5 403/4/5
f 412/3/5 405/3/5 404/3/5
f 412/4/5 404/4/5 411/4/5
f 413/4/5 406/4/5 405/4/5
f 413/3/5 405/3/5 412/3/5
f 414/3/5 407/3/5 406/3/5
f 414/4/5 406/4/5 413/4/5
f 415/3/5 407/3/5 414/3/5
f 418/3/5 410/3/5 409/3/5
f 418/3/5 409/3/5 408/3/5
f 419/3/5 410/3/5 418/3/5
f 420/6/5 419/6/5 418/6/5
f 421/3/5 410/3/5 419/3/5
f 421/6/5 419/6/5 420/6/5
f 422/3/5 421/3/5 420/3/5
f 423/3/5 410/3/5 421/3/5
f 423/3/5 421/3/5 422/3/5
f 424/3/5 410/3/5 423/3/5
f 430/3/5 417/3/5 416/3/5
f 431/3/5 417/3/5 430/3/5
f 432/4/5 426/4/5 425/4/5
f 433/3/5 427/3/5 426/3/5
f 433/4/5 426/4/5 432/4/5
f 434/4/5 428/4/5 427/4/5
f 434/3/5 427/3/5 433/3/5
f 435/3/5 429/3/5 428/3/5
f 435/4/5 428/4/5 434/4/5
f 436/3/5 429/3/5 435/3/5
f 437/3/6 438/3/6 439/3/6
f 439/3/6 438/3/6 440/3/6
f 439/1/6 440/1/6 444/1/6
f 440/3/6 438/3/6 445/3/6
f 444/1/6 440/1/6 445/1/6
f 445/3/6 438/3/6 446/3/6
f 442/3/6 443/3/6 447/3/6
f 441/3/6 442/3/6 447/3/6
f 441/3/6 447/3/6 449/3/6
f 447/3/6 448/3/6 449/3/6
f 449/3/6 448/3/6 450/3/6
f 445/4/6 446/4/6 451/4/6
f 444/4/6 445/4/6 451/4/6
f 451/4/6 446/4/6 452/4/6
f 452/4/6 446/4/6 453/4/6
f 451/1/6 452/1/6 454/1/6
f 452/3/6 453/3/6 455/3/6
f 454/1/6 452/1/6 455/1/6
f 441/3/6 449/3/6 456/3/6
f 456/3/6 449/3/6 457/3/6
f 457/3/6 449/3/6 458/3/6
f 454/3/6 455/3/6 459/3/6
f 455/3/6 453/3/6 460/3/6
f 459/3/6 455/3/6 460/3/6
f 461/3/6 462/3/6 463/3/6
f 463/3/6 462/3/6 464/3/6
f 465/3/6 466/3/6 467/3/6
f 467/3/6 466/3/6 468/3/6
f 469/2/6 470/2/6 471/2/6
f 471/2/6 470/2/6 472/2/6
f 473/2/6 474/2/6 475/2/6
f 475/2/6 474/2/6 476/2/6
f 477/2/6 478/2/6 483/2/6
f 483/2/6 478/2/6 484/2/6
f 479/7/6 480/7/6 485/7/6
f 480/3/6 481/3/6 486/3/6
f 485/7/6 480/7/6 486/7/6
f 486/3/6 481/3/6 487/3/6
f 482/2/6 483/2/6 488/2/6
f 488/2/6 483/2/6 489/2/6
f 489/2/6 490/2/6 494/2/6
f 494/2/6 490/2/6 495/2/6
f 491/7/6 492/7/6 496/7/6
f 492/3/6 493/3/6 497/3/6
f 496/7/6 492/7/6 497/7/6
f 497/3/6 493/3/6 498/3/6
f 499/4/6 500/4/6 505/4/6
f 505/4/6 500/4/6 506/4/6
f 501/4/6 502/4/6 507/4/6
f 502/3/6 503/3/6 508/3/6
f 507/4/6 502/4/6 508/4/6
f 508/3/6 503/3/6 509/3/6
f 504/2/6 505/2/6 510/2/6
f 510/2/6 505/2/6 511/2/6
f 511/4/6 512/4/6 516/4/6
f 516/4/6 512/4/6 517/4/6
f 513/4/6 514/4/6 518/4/6
f 514/3/6 515/3/6 519/3/6
f 518/4/6 514/4/6 519/4/6
f 519/3/6 515/3/6 520/3/6
f 521/3/6 522/3/6 524/3/6
f 524/3/6 522/3/6 525/3/6
f 523/3/6 524/3/6 527/3/6
f 525/3/6 526/3/6 527/3/6
f 524/3/6 525/3/6 527/3/6
f 527/3/6 526/3/6 528/3/6
f 523/3/6 527/3/6 529/3/6
f 527/4/6 528/4/6 529/4/6
f 528/3/6 526/3/6 530/3/6
f 529/4/6 528/4/6 530/4/6
f 523/3/6 529/3/6 531/3/6
f 529/3/6 530/3/6 531/3/6
f 531/3/6 530/3/6 532/3/6
f 532/3/6 530/3/6 533/3/6
f 530/3/6 526/3/6 534/3/6
f 533/3/6 530/3/6 534/3/6
f 532/3/6 533/3/6 535/3/6
f 535/3/6 533/3/6 536/3/6
